<svg width="175" height="175" viewBox="0 0 175 175" fill="none" xmlns="http://www.w3.org/2000/svg">
<g clip-path="url(#clip0)">
<path d="M106.061 155.207H68.9389C57.026 155.207 50.7255 163.403 48 175.001H128C125.274 163.403 117.974 155.207 106.061 155.207Z" fill="#FE8BC9"/>
<path d="M166.677 84.0463C166.677 92.4656 163.364 100.5 157.545 106.215L87.4968 174.999L161.154 53.2053C164.737 62.8294 166.677 73.2594 166.677 84.0463Z" fill="#FE8BC9"/>
<path d="M161.154 53.2055L87.4968 174.999L125.47 10.2961C136.014 16.3971 144.975 24.9076 151.818 35.0289C155.611 40.6394 158.752 46.7404 161.154 53.2055Z" fill="#FE8BC9"/>
<path d="M125.47 10.2964L87.4968 174.999V0C96.0481 0 104.606 1.47098 112.821 4.41295C117.249 5.99583 121.471 7.97128 125.47 10.2964Z" fill="#FE8BC9"/>
<path d="M87.4966 0V174.999L49.5232 10.2964C53.5217 7.9708 57.7515 5.99583 62.1789 4.41247C70.3935 1.47098 78.9449 0 87.4966 0Z" fill="#FE8BC9"/>
<path d="M49.5232 10.2961L87.4967 174.999L13.8395 53.2127V53.2055C16.2479 46.7404 19.3887 40.6394 23.1828 35.0289C30.0249 24.9076 38.9856 16.4043 49.5232 10.2961Z" fill="#FE8BC9"/>
<path d="M13.8396 53.2134L87.4967 175L17.4551 106.216C14.5452 103.358 12.2622 99.9192 10.7052 96.1434C9.14778 92.368 8.32318 88.2565 8.32318 84.0466C8.32318 73.2602 10.2632 62.8375 13.8396 53.2134Z" fill="#FE8BC9"/>
<ellipse cx="88" cy="71.5" rx="76" ry="71.5" fill="#FE8BC9"/>
<rect x="67" y="134" width="41" height="30" fill="#FE8BC9"/>
<path d="M113.797 53.2969H60.2031C55.6799 53.2969 52 56.9768 52 61.5V96.5C52 101.023 55.6799 104.703 60.2031 104.703H113.797C118.32 104.703 122 101.023 122 96.5V61.5C122 56.9768 118.32 53.2969 113.797 53.2969ZM116.531 96.5C116.531 98.0077 115.305 99.2344 113.797 99.2344H60.2031C58.6954 99.2344 57.4688 98.0077 57.4688 96.5V61.5C57.4688 59.9923 58.6954 58.7656 60.2031 58.7656H113.797C115.305 58.7656 116.531 59.9923 116.531 61.5V96.5Z" fill="white"/>
<path d="M116.067 56.7063L87 78.3266L57.933 56.7063L54.669 61.0943L87 85.1423L119.331 61.0943L116.067 56.7063Z" fill="white"/>
</g>
<defs>
<clipPath id="clip0">
<rect width="175" height="175" fill="white"/>
</clipPath>
</defs>
</svg>
