<svg width="175" height="175" viewBox="0 0 175 175" fill="none" xmlns="http://www.w3.org/2000/svg">
<g clip-path="url(#clip0)">
<path d="M106.061 155.207H68.9389C57.026 155.207 50.7255 163.403 48 175.001H128C125.274 163.403 117.974 155.207 106.061 155.207Z" fill="#6CD3FF"/>
<path d="M166.677 84.0463C166.677 92.4656 163.364 100.5 157.545 106.215L87.4968 174.999L161.154 53.2053C164.737 62.8294 166.677 73.2594 166.677 84.0463Z" fill="#6CD3FF"/>
<path d="M161.154 53.2055L87.4968 174.999L125.47 10.2961C136.014 16.3971 144.975 24.9076 151.818 35.0289C155.611 40.6394 158.752 46.7404 161.154 53.2055Z" fill="#6CD3FF"/>
<path d="M125.47 10.2964L87.4968 174.999V0C96.0481 0 104.606 1.47098 112.821 4.41295C117.249 5.99582 121.471 7.97128 125.47 10.2964Z" fill="#6CD3FF"/>
<path d="M87.4967 0V174.999L49.5232 10.2964C53.5217 7.9708 57.7515 5.99583 62.1789 4.41247C70.3936 1.47098 78.9449 0 87.4967 0Z" fill="#6CD3FF"/>
<path d="M49.5232 10.2961L87.4967 174.999L13.8395 53.2127V53.2055C16.2479 46.7404 19.3887 40.6394 23.1828 35.0289C30.0249 24.9076 38.9856 16.4043 49.5232 10.2961Z" fill="#6CD3FF"/>
<path d="M13.8396 53.2134L87.4967 175L17.4551 106.216C14.5452 103.358 12.2622 99.9192 10.7052 96.1434C9.14778 92.368 8.32318 88.2565 8.32318 84.0466C8.32318 73.2602 10.2632 62.8375 13.8396 53.2134Z" fill="#6CD3FF"/>
<ellipse cx="88" cy="71.5" rx="76" ry="71.5" fill="#6CD3FF"/>
<path d="M71.45 54.75C71.45 58.2025 68.675 61 65.25 61C61.825 61 59.05 58.2025 59.05 54.75C59.05 51.3 61.825 48.5 65.25 48.5C68.675 48.5 71.45 51.3 71.45 54.75ZM71.5 66H59V106H71.5V66ZM91.455 66H79.035V106H91.4575V85.0025C91.4575 73.3275 106.53 72.3725 106.53 85.0025V106H119V80.6725C119 60.9725 96.695 61.69 91.455 71.3875V66Z" fill="white"/>
<rect x="67" y="134" width="41" height="30" fill="#6CD3FF"/>
</g>
<defs>
<clipPath id="clip0">
<rect width="175" height="175" fill="white"/>
</clipPath>
</defs>
</svg>
