<svg width="197" height="128" viewBox="0 0 197 128" fill="none" xmlns="http://www.w3.org/2000/svg">
<path d="M47.4793 68.5246L15.168 48.4886C12.0634 46.5638 7.66562 47.8285 7.25139 50.7656L3.87194 74.727C3.4577 77.664 7.33783 80.0699 10.8565 79.0579L47.4793 68.5246Z" fill="#73D1F9"/>
<path d="M42.5117 67.8415C50.2264 92.0824 76.4043 112.221 109.8 116.824C143.194 121.427 173.947 109.136 188.074 87.9064C182.953 71.8173 169.703 57.5357 151.607 48.4066C134.634 39.8378 114.468 36.4167 95.6531 38.6058C72.5993 41.2751 52.9884 52.0992 42.5117 67.8415Z" fill="#D0F1FF"/>
<path d="M98.6646 17.247L95.6526 38.6061C114.431 36.4215 134.601 39.821 151.607 48.4069L106.954 15.2234C103.921 12.9684 99.1027 14.1447 98.6646 17.247Z" fill="#73D1F9"/>
<path d="M82.2715 66.4321L84.1717 55.7193L87.5115 56.312C88.5408 56.4946 89.2748 56.9065 89.7135 57.5477C90.1647 58.1803 90.3101 58.9482 90.1499 59.8514L90.0018 60.6864C89.8416 61.5896 89.44 62.2658 88.797 62.7151C88.1645 63.1661 87.3336 63.3004 86.3043 63.1177L84.3351 62.7683L83.6421 66.6753L82.2715 66.4321ZM87.2824 57.6038L85.3132 57.2543L84.5615 61.4922L86.5307 61.8416C87.0978 61.9423 87.5554 61.8664 87.9035 61.614C88.2621 61.3635 88.4889 60.9704 88.584 60.4348L88.7321 59.5998C88.8252 59.0747 88.7456 58.638 88.4932 58.2899C88.2531 57.9331 87.8495 57.7044 87.2824 57.6038ZM95.9583 61.9871C95.4857 61.9032 95.0087 61.9053 94.5272 61.9932C94.0563 62.0829 93.5269 62.3194 92.9389 62.7026L91.9721 68.1535L90.6803 67.9242L92.0635 60.126L93.2923 60.344L93.0687 61.6043C93.6975 61.1743 94.2511 60.8933 94.7295 60.7616C95.2183 60.6316 95.7043 60.6095 96.1874 60.6953L95.9583 61.9871ZM102.202 69.4975C101.688 69.6447 101.187 69.7184 100.7 69.7185C100.21 69.7292 99.7663 69.6991 99.3672 69.6283C98.2434 69.4289 97.46 68.9594 97.017 68.22C96.5845 67.4824 96.467 66.557 96.6645 65.4437L96.8321 64.4984C97.024 63.4166 97.4508 62.5986 98.1124 62.0444C98.7845 61.492 99.6247 61.3052 100.633 61.4842C101.169 61.5792 101.637 61.7762 102.039 62.075C102.454 62.3652 102.753 62.7541 102.937 63.2418C103.134 63.7209 103.172 64.3018 103.051 64.9845C102.973 65.4256 102.82 65.9185 102.594 66.4633L97.9461 65.6386L97.9405 65.6701C97.7989 66.4683 97.8546 67.1011 98.1075 67.5685C98.371 68.0377 98.8703 68.3376 99.6055 68.4681C99.9415 68.5277 100.317 68.5509 100.731 68.5377C101.155 68.5264 101.577 68.4659 101.998 68.3563L102.202 69.4975ZM100.432 62.6185C99.8226 62.5104 99.3251 62.6279 98.9393 62.9711C98.5658 63.3057 98.2999 63.8272 98.1417 64.5358L101.671 65.162C101.736 64.9786 101.783 64.8028 101.813 64.6348C101.917 64.0466 101.826 63.5862 101.538 63.2535C101.263 62.9121 100.894 62.7005 100.432 62.6185ZM111.459 63.5677L107.319 70.8768L106.106 70.6615L104.7 62.3684L106.039 62.6061L106.674 66.6348L107.039 69.1535L108.233 66.9116L110.183 63.3413L111.459 63.5677ZM124.302 62.8407L118.984 72.9468L117.597 72.7008L116.063 61.3786L117.512 61.6358L118.25 67.3728L118.665 70.9889L120.316 67.7233L122.948 62.6002L124.302 62.8407ZM124.395 73.907L126.295 63.1942L129.635 63.7869C130.664 63.9695 131.398 64.3815 131.837 65.0227C132.288 65.6552 132.433 66.4231 132.273 67.3263L132.125 68.1613C131.965 69.0645 131.563 69.7408 130.92 70.19C130.288 70.6411 129.457 70.7753 128.427 70.5927L126.458 70.2432L125.765 74.1502L124.395 73.907ZM129.406 65.0787L127.436 64.7293L126.685 68.9671L128.654 69.3166C129.221 69.4172 129.679 69.3414 130.027 69.089C130.385 68.8384 130.612 68.4453 130.707 67.9097L130.855 67.0747C130.948 66.5496 130.869 66.113 130.616 65.7648C130.376 65.4081 129.973 65.1794 129.406 65.0787ZM146.097 80.472C145.44 80.637 144.735 80.7339 143.982 80.7629C143.24 80.7937 142.501 80.7438 141.766 80.6134C140.369 80.3655 139.227 79.8704 138.341 79.1281C137.465 78.3876 136.859 77.4676 136.523 76.368C136.187 75.2684 136.137 74.0517 136.374 72.7178C136.568 71.6255 136.915 70.6471 137.415 69.7825C137.917 68.9074 138.539 68.1782 139.281 67.595C140.024 67.0118 140.86 66.6076 141.788 66.3823C142.718 66.1465 143.703 66.1209 144.743 66.3054C145.709 66.4768 146.557 66.7953 147.287 67.2606C148.017 67.726 148.619 68.2987 149.095 68.9789C149.57 69.6591 149.891 70.4148 150.057 71.246C150.237 72.0686 150.246 72.9315 150.086 73.8348C149.931 74.7065 149.641 75.4567 149.215 76.0853C148.8 76.7158 148.296 77.1788 147.701 77.4742C147.118 77.7714 146.495 77.8614 145.834 77.744C145.33 77.6545 144.928 77.4749 144.629 77.2052C144.341 76.9374 144.19 76.5693 144.175 76.1009C143.634 76.5249 143.13 76.8037 142.662 76.9374C142.204 77.0729 141.766 77.1033 141.346 77.0288C140.852 76.9412 140.468 76.7267 140.192 76.3854C139.929 76.0354 139.785 75.5981 139.759 75.0734C139.734 74.5383 139.826 73.9588 140.035 73.3349L140.314 72.4908C140.658 71.4685 141.159 70.7231 141.816 70.2548C142.486 69.7778 143.293 69.6231 144.238 69.7908C144.753 69.8822 145.236 70.06 145.687 70.3243C146.151 70.5799 146.587 70.901 146.995 71.2876L145.616 75.1216C145.414 75.6492 145.374 76.0319 145.494 76.2699C145.627 76.4993 145.84 76.6401 146.134 76.6923C146.502 76.7575 146.868 76.6763 147.233 76.4486C147.609 76.2228 147.943 75.8703 148.233 75.3911C148.526 74.9014 148.734 74.3099 148.857 73.6167C149.034 72.619 148.972 71.6871 148.67 70.8211C148.371 69.9446 147.868 69.2054 147.162 68.6035C146.469 67.993 145.597 67.5945 144.547 67.4082C143.686 67.2553 142.869 67.2784 142.097 67.4772C141.325 67.6761 140.629 68.0291 140.008 68.5365C139.4 69.0352 138.883 69.6585 138.458 70.4063C138.043 71.1561 137.753 71.9983 137.587 72.9331C137.388 74.0569 137.417 75.0805 137.676 76.0039C137.947 76.9187 138.441 77.6779 139.157 78.2817C139.882 78.8978 140.817 79.3074 141.962 79.5106C142.613 79.6261 143.278 79.6629 143.957 79.6209C144.634 79.5895 145.269 79.4909 145.862 79.3252L146.097 80.472ZM141.358 73.5697C141.128 74.2548 141.057 74.8056 141.146 75.2221C141.247 75.63 141.497 75.8694 141.896 75.9402C142.201 75.9943 142.564 75.9288 142.987 75.7439C143.41 75.5589 143.892 75.1948 144.432 74.6515L145.5 71.656C145.035 71.2811 144.572 71.0526 144.11 70.9706C143.49 70.8607 142.979 70.9649 142.576 71.2834C142.173 71.6018 141.86 72.0826 141.638 72.7256L141.358 73.5697ZM78.4197 75.011L79.8375 75.2626L78.6191 82.1314C78.4664 82.9926 78.5257 83.6965 78.7971 84.243C79.079 84.7913 79.6033 85.1335 80.37 85.2696C81.1471 85.4075 81.7571 85.2666 82.1999 84.8468C82.6427 84.4271 82.9405 83.7866 83.0932 82.9254L84.3116 76.0566L85.7295 76.3082L84.5111 83.177C84.2894 84.4268 83.8106 85.3547 83.0748 85.9608C82.3408 86.5564 81.3647 86.7461 80.1464 86.5299C78.9176 86.3119 78.061 85.7969 77.5767 84.9852C77.1047 84.1647 76.9796 83.1296 77.2013 81.8798L78.4197 75.011ZM89.3111 81.6238L89.2989 86.0903L93.3455 77.6597L94.6215 77.8861L95.53 87.1473L97.0778 83.002L98.8121 78.6297L100.167 78.8702L95.9036 89.1636L94.5173 88.9176L93.6134 79.7222L89.6021 88.0454L88.2 87.7966L87.7528 76.6672L89.1864 76.9216L89.3111 81.6238ZM105.61 86.5798C105.435 87.5671 105.494 88.363 105.788 88.9676C106.094 89.5636 106.656 89.9342 107.475 90.0796C107.833 90.143 108.192 90.1634 108.553 90.1409C108.915 90.1183 109.356 90.0449 109.876 89.9206L110.126 91.1675C109.571 91.3072 109.052 91.3886 108.572 91.4116C108.091 91.4346 107.635 91.4079 107.205 91.3315C105.965 91.1116 105.094 90.5562 104.592 89.6653C104.089 88.7744 103.956 87.6621 104.192 86.3282L104.611 83.9651C104.848 82.6313 105.356 81.6326 106.134 80.9691C106.913 80.3055 107.921 80.0838 109.161 80.3037C109.591 80.3801 110.028 80.5118 110.472 80.6988C110.926 80.8877 111.374 81.1406 111.816 81.4574L111.165 82.5606C110.382 82.0316 109.654 81.7074 108.982 81.5881C108.162 81.4428 107.507 81.5972 107.015 82.0516C106.533 82.5077 106.204 83.2295 106.029 84.2167L105.61 86.5798ZM114.658 91.3867C115.32 91.5041 115.855 91.4527 116.262 91.2325C116.671 91.0018 116.925 90.6082 117.024 90.0515C117.106 89.5894 117.049 89.1784 116.853 88.8186C116.667 88.4607 116.311 88.1483 115.784 87.8815L114.575 87.2769C113.819 86.8937 113.296 86.427 113.003 85.8768C112.713 85.3161 112.631 84.6786 112.757 83.9644C112.854 83.4183 113.047 82.9433 113.335 82.5394C113.634 82.1375 114.043 81.8471 114.562 81.6684C115.092 81.4916 115.745 81.4721 116.523 81.61C116.995 81.6939 117.473 81.8383 117.957 82.0433C118.442 82.2378 118.921 82.5015 119.393 82.8344L118.742 83.9377C118.277 83.6277 117.848 83.389 117.455 83.2218C117.075 83.046 116.701 82.9254 116.333 82.8602C115.735 82.754 115.245 82.7971 114.864 82.9895C114.496 83.1733 114.261 83.5488 114.161 84.1159C114.088 84.5255 114.137 84.8917 114.307 85.2144C114.479 85.5266 114.833 85.8223 115.368 86.1015L116.577 86.706C118.09 87.4619 118.707 88.6223 118.43 90.1872C118.27 91.0905 117.866 91.7772 117.219 92.2474C116.575 92.7072 115.648 92.8299 114.44 92.6155C113.947 92.5279 113.432 92.377 112.896 92.1627C112.372 91.9397 111.839 91.6448 111.298 91.2779L111.93 90.1875C112.442 90.5384 112.909 90.8055 113.331 90.9888C113.764 91.1739 114.207 91.3066 114.658 91.3867ZM125.349 90.0825C125.173 91.0698 125.233 91.8657 125.526 92.4703C125.832 93.0662 126.395 93.4369 127.214 93.5823C127.571 93.6456 127.93 93.6661 128.292 93.6436C128.653 93.621 129.094 93.5476 129.615 93.4233L129.865 94.6702C129.309 94.8099 128.791 94.8913 128.31 94.9143C127.829 94.9373 127.374 94.9106 126.943 94.8342C125.704 94.6143 124.833 94.0589 124.33 93.168C123.827 92.2771 123.694 91.1647 123.931 89.8309L124.35 87.4678C124.586 86.1339 125.094 85.1353 125.873 84.4717C126.651 83.8082 127.66 83.5864 128.899 83.8064C129.33 83.8828 129.767 84.0145 130.21 84.2015C130.664 84.3904 131.112 84.6433 131.555 84.9601L130.904 86.0633C130.12 85.5343 129.392 85.2101 128.72 85.0908C127.901 84.9455 127.245 85.0999 126.753 85.5542C126.271 86.0104 125.943 86.7321 125.768 87.7194L125.349 90.0825ZM132.053 93.6285L133.786 83.861L135.077 84.0902L133.356 93.7947C133.306 94.0783 133.31 94.3011 133.367 94.463C133.438 94.6163 133.609 94.7172 133.883 94.7656L134.135 94.8104L133.925 95.9919L133.563 95.9276C132.87 95.8046 132.419 95.5351 132.211 95.119C132.003 94.703 131.951 94.2061 132.053 93.6285ZM140.692 97.1116L140.888 96.0088C140.258 96.3845 139.711 96.6287 139.247 96.7413C138.784 96.8434 138.338 96.8563 137.907 96.7799C137.214 96.6569 136.724 96.3369 136.436 95.8201C136.151 95.2927 136.082 94.6142 136.229 93.7845L137.176 88.4439L138.468 88.6731L137.554 93.8247C137.457 94.3708 137.48 94.7919 137.622 95.0881C137.777 95.3755 138.049 95.5538 138.438 95.6227C138.732 95.6749 139.076 95.6601 139.469 95.5783C139.863 95.4965 140.372 95.2835 140.996 94.9393L141.997 89.2993L143.289 89.5285L141.905 97.3268L140.692 97.1116ZM151.598 95.5044C151.404 96.5966 150.977 97.4199 150.315 97.9742C149.653 98.5284 148.792 98.7114 147.731 98.5232C146.681 98.3368 145.691 97.874 144.76 97.1347L146.708 86.1541L148 86.3833L147.128 91.2986C147.679 90.9414 148.164 90.7079 148.585 90.5984C149.017 90.4801 149.438 90.4574 149.848 90.53C150.667 90.6754 151.241 91.1023 151.571 91.8108C151.9 92.5192 151.963 93.4458 151.76 94.5906L151.598 95.5044ZM149.318 91.6872C149.024 91.635 148.695 91.6579 148.331 91.7558C147.977 91.8555 147.504 92.1075 146.913 92.5117L146.181 96.6392C146.754 97.0118 147.313 97.2465 147.859 97.3434C148.563 97.4683 149.105 97.3424 149.486 96.9659C149.869 96.5788 150.127 96.0124 150.259 95.2667L150.421 94.353C150.566 93.5338 150.547 92.9075 150.364 92.4742C150.181 92.0408 149.832 91.7785 149.318 91.6872Z" fill="#0E3C66"/>
</svg>
