<svg width="203" height="149" viewBox="0 0 203 149" fill="none" xmlns="http://www.w3.org/2000/svg">
<g clip-path="url(#clip0_402_34)">
<path d="M50.1753 76.0039L19.8793 52.5129C16.9684 50.256 12.5011 51.3676 11.8376 54.5141L6.42471 80.1838C5.76122 83.3303 9.39934 86.151 12.9736 85.2617L50.1753 76.0039Z" fill="#ED76B7"/>
<path d="M45.3436 74.8252C50.8822 101.527 75.0773 124.839 107.776 131.734C140.475 138.63 172.024 127.071 187.872 104.88C184.196 87.1573 172.305 70.9286 155.163 60.0048C139.086 49.7521 119.395 44.8936 100.556 46.19C77.4747 47.7644 57.0964 58.3698 45.3436 74.8252Z" fill="#FFDFF3"/>
<path d="M105.318 23.6056L100.493 46.4875C119.291 45.2125 138.988 50.0455 155.101 60.2942L113.708 21.8995C110.896 19.2903 106.019 20.2822 105.318 23.6056Z" fill="#ED76B7"/>
<path d="M83.9132 77.5542L86.1581 66.9083L89.4614 67.6048C90.6826 67.8623 91.5438 68.4309 92.0451 69.3106C92.5486 70.1799 92.6639 71.2616 92.391 72.5558L91.8991 74.8885C91.624 76.1932 91.0795 77.1467 90.2657 77.7491C89.4541 78.341 88.4377 78.5082 87.2166 78.2507L83.9132 77.5542ZM89.1594 68.882L87.2494 68.4792L85.5427 76.5733L87.4527 76.976C89.0704 77.3171 90.0829 76.5223 90.49 74.5914L90.9819 72.2587C91.3847 70.3487 90.7772 69.2231 89.1594 68.882ZM99.3159 80.3279C98.7978 80.4584 98.2951 80.516 97.8078 80.5004C97.3183 80.4953 96.8753 80.4509 96.4787 80.3673C95.3619 80.1318 94.594 79.6374 94.1751 78.8841C93.7666 78.133 93.6791 77.2043 93.9123 76.0979L94.1104 75.1586C94.3371 74.0836 94.79 73.2797 95.4692 72.7471C96.1588 72.2166 97.0046 72.057 98.0066 72.2683C98.5389 72.3805 99.0011 72.5925 99.3933 72.9041C99.798 73.2075 100.085 73.6058 100.253 74.0992C100.434 74.5844 100.453 75.1662 100.31 75.8446C100.218 76.2829 100.05 76.7707 99.8055 77.3079L95.1871 76.334L95.1805 76.3653C95.0132 77.1586 95.0484 77.7928 95.2861 78.2681C95.5343 78.7456 96.0237 79.0613 96.7543 79.2154C97.0883 79.2858 97.4624 79.3211 97.8766 79.3212C98.3012 79.3236 98.7254 79.2767 99.1489 79.1807L99.3159 80.3279ZM97.7689 73.3955C97.1636 73.2679 96.6625 73.3693 96.2658 73.6999C95.8817 74.0223 95.5991 74.535 95.4181 75.2381L98.925 75.9776C98.996 75.7963 99.049 75.6222 99.0842 75.4552C99.2075 74.8707 99.1307 74.4076 98.854 74.0658C98.5898 73.7158 98.2281 73.4924 97.7689 73.3955ZM108.76 74.6993L104.386 81.8711L103.18 81.6169L102.043 73.283L103.374 73.5636L103.878 77.6107L104.162 80.1398L105.428 77.9375L107.492 74.4319L108.76 74.6993ZM117.743 77.9017L117.251 80.2344C116.972 81.56 116.415 82.5437 115.582 83.1856C114.762 83.8193 113.731 84.0052 112.489 83.7433C111.247 83.4814 110.373 82.8939 109.868 81.9806C109.376 81.0592 109.269 79.9357 109.549 78.6102L110.04 76.2775C110.318 74.9624 110.867 73.988 111.687 73.3543C112.52 72.7124 113.558 72.5224 114.8 72.7843C116.042 73.0462 116.909 73.6379 117.401 74.5593C117.906 75.4725 118.02 76.5867 117.743 77.9017ZM116.334 77.6046C116.539 76.634 116.487 75.8437 116.18 75.2338C115.885 74.6157 115.336 74.2219 114.532 74.0524C113.739 73.8851 113.078 74.0236 112.548 74.4679C112.02 74.9017 111.654 75.604 111.449 76.5746L110.958 78.9073C110.751 79.8884 110.8 80.6891 111.105 81.3095C111.41 81.9298 111.96 82.3236 112.753 82.4908C113.556 82.6603 114.218 82.5218 114.737 82.0754C115.267 81.6311 115.635 80.9184 115.842 79.9373L116.334 77.6046ZM122.046 85.7586C121.461 85.6354 120.881 85.3877 120.306 85.0156L119.56 88.5538L118.276 88.2831L120.613 77.1988L121.834 77.4563L121.603 78.5522C122.18 78.1942 122.687 77.9631 123.123 77.8589C123.559 77.7546 123.986 77.7465 124.404 77.8346C125.228 78.0084 125.794 78.4547 126.1 79.1734C126.417 79.8942 126.455 80.8235 126.215 81.9611L126.024 82.8692C125.795 83.9546 125.336 84.7626 124.646 85.293C123.967 85.8257 123.1 85.9809 122.046 85.7586ZM123.836 78.974C123.534 78.9102 123.204 78.9225 122.847 79.0108C122.491 79.0991 122.017 79.3316 121.425 79.7083L120.553 83.8414C120.827 84.0409 121.099 84.2017 121.367 84.3237C121.638 84.4353 121.909 84.5197 122.181 84.577C122.89 84.7266 123.447 84.6205 123.85 84.2586C124.256 83.8863 124.537 83.3296 124.693 82.5886L124.884 81.6805C125.056 80.8664 125.052 80.2388 124.873 79.7976C124.704 79.3586 124.358 79.0841 123.836 78.974ZM129.781 86.1959C130.824 86.416 131.421 86.1712 131.571 85.4615C131.635 85.1588 131.591 84.8989 131.441 84.6819C131.29 84.4648 130.978 84.2409 130.503 84.01L129.688 83.6092C129.085 83.3184 128.667 82.9469 128.435 82.4947C128.206 82.0321 128.148 81.5294 128.263 80.9867C128.347 80.5901 128.512 80.2435 128.76 79.9469C129.01 79.6399 129.35 79.4227 129.781 79.2954C130.211 79.1681 130.734 79.1694 131.35 79.2992C131.746 79.3828 132.138 79.5145 132.525 79.6943C132.925 79.8658 133.317 80.1011 133.701 80.4001L133.066 81.3945C132.377 80.8894 131.724 80.5719 131.109 80.4421C130.2 80.2506 129.675 80.4941 129.532 81.1725C129.477 81.4334 129.513 81.6754 129.64 81.8985C129.768 82.1216 130.049 82.339 130.484 82.5506L131.299 82.9514C131.953 83.2636 132.401 83.6417 132.646 84.0857C132.89 84.5296 132.95 85.0491 132.824 85.644C132.734 86.0719 132.557 86.4435 132.295 86.7588C132.045 87.0658 131.695 87.2755 131.246 87.388C130.808 87.5027 130.249 87.4885 129.571 87.3454C129.122 87.2508 128.683 87.1092 128.254 86.9206C127.836 86.7342 127.414 86.4872 126.988 86.1794L127.557 85.1874C127.968 85.4595 128.348 85.6758 128.696 85.8363C129.043 85.9968 129.405 86.1167 129.781 86.1959ZM147.345 93.6607C146.683 93.8044 145.975 93.8786 145.222 93.8833C144.479 93.8902 143.742 93.8166 143.012 93.6626C141.624 93.3699 140.499 92.8383 139.636 92.0678C138.784 91.2995 138.208 90.3604 137.908 89.2506C137.608 88.1408 137.598 86.9232 137.877 85.5976C138.106 84.5122 138.485 83.5454 139.012 82.6974C139.542 81.8389 140.188 81.1302 140.949 80.5712C141.71 80.0122 142.558 79.635 143.493 79.4398C144.43 79.2341 145.415 79.2401 146.449 79.458C147.409 79.6605 148.246 80.0061 148.961 80.4947C149.675 80.9833 150.259 81.5751 150.712 82.2702C151.165 82.9653 151.462 83.731 151.601 84.5671C151.754 85.3951 151.735 86.2578 151.546 87.1554C151.363 88.0217 151.049 88.7621 150.604 89.3767C150.168 89.9935 149.649 90.44 149.046 90.7161C148.453 90.9944 147.828 91.0643 147.17 90.9256C146.669 90.82 146.274 90.6276 145.984 90.3484C145.704 90.0715 145.565 89.6987 145.565 89.2301C145.011 89.6364 144.498 89.8988 144.026 90.0173C143.564 90.138 143.125 90.1544 142.707 90.0664C142.217 89.9629 141.839 89.7362 141.575 89.3861C141.324 89.0279 141.193 88.5862 141.184 88.061C141.177 87.5253 141.288 86.9491 141.516 86.3322L141.823 85.4976C142.2 84.4869 142.724 83.758 143.396 83.3111C144.081 82.8559 144.893 82.7273 145.832 82.9254C146.343 83.0332 146.82 83.2265 147.263 83.5052C147.718 83.7756 148.144 84.1106 148.539 84.5101L147.037 88.2977C146.819 88.8184 146.765 89.1997 146.878 89.4414C147.003 89.675 147.212 89.8225 147.504 89.8842C147.869 89.9612 148.238 89.8918 148.611 89.676C148.994 89.4625 149.338 89.1209 149.645 88.6513C149.953 88.1712 150.18 87.5868 150.325 86.8979C150.534 85.9064 150.502 84.973 150.229 84.0978C149.958 83.2121 149.479 82.4572 148.793 81.8329C148.12 81.2003 147.261 80.774 146.218 80.5539C145.362 80.3735 144.545 80.3702 143.767 80.5441C142.989 80.718 142.281 81.0484 141.645 81.5355C141.02 82.0144 140.484 82.6207 140.035 83.3545C139.596 84.0905 139.279 84.9229 139.083 85.8518C138.847 86.9686 138.844 87.9926 139.073 88.9239C139.314 89.8469 139.783 90.6216 140.48 91.2481C141.184 91.8873 142.105 92.3268 143.243 92.5667C143.89 92.7031 144.554 92.7613 145.234 92.7412C145.912 92.7315 146.55 92.6534 147.147 92.507L147.345 93.6607ZM142.831 86.6095C142.579 87.2868 142.491 87.8351 142.566 88.2542C142.654 88.6652 142.896 88.9125 143.293 88.9961C143.595 89.0599 143.961 89.0062 144.39 88.835C144.818 88.6637 145.311 88.3153 145.869 87.7897L147.033 84.8302C146.581 84.4405 146.125 84.1973 145.666 84.1004C145.05 83.9706 144.536 84.0583 144.122 84.3636C143.709 84.6689 143.381 85.1394 143.138 85.7749L142.831 86.6095ZM74.5428 99.084L76.7876 88.4381L79.9188 89.0984C80.9416 89.3141 81.6403 89.723 82.0148 90.3252C82.4019 90.9192 82.5074 91.6337 82.3313 92.4687L82.2587 92.8131C82.1618 93.2723 81.9716 93.6574 81.6881 93.9682C81.4045 94.2791 81.0424 94.4971 80.6018 94.6222C81.1175 94.9162 81.4734 95.2965 81.6694 95.763C81.878 96.2212 81.9228 96.7321 81.804 97.2958L81.7314 97.6402C81.5509 98.496 81.1552 99.1321 80.5441 99.5483C79.9457 99.9563 79.1195 100.049 78.0653 99.8268L74.5428 99.084ZM79.6547 90.3508L77.8856 89.9778L77.1758 93.3438L78.9449 93.7168C79.4668 93.8269 79.8857 93.7789 80.2016 93.573C80.5302 93.3589 80.744 93.017 80.8431 92.5473L80.9223 92.1716C81.0191 91.7123 80.9594 91.3236 80.743 91.0055C80.5393 90.6791 80.1765 90.4609 79.6547 90.3508ZM79.0722 95.0518L76.9117 94.5962L76.1656 98.1344L78.3261 98.59C78.8793 98.7067 79.3213 98.6527 79.6521 98.4281C79.9933 98.2057 80.2167 97.844 80.3224 97.3431L80.4016 96.9673C80.5028 96.4872 80.4423 96.0765 80.2199 95.7353C80.0079 95.3963 79.6254 95.1685 79.0722 95.0518ZM83.7008 101.015L85.9456 90.3693L89.249 91.0658C90.4701 91.3233 91.3313 91.8919 91.8326 92.7716C92.3361 93.6409 92.4514 94.7226 92.1785 96.0168L91.6866 98.3495C91.4115 99.6541 90.867 100.608 90.0532 101.21C89.2416 101.802 88.2253 101.969 87.0041 101.712L83.7008 101.015ZM88.947 92.343L87.037 91.9402L85.3302 100.034L87.2402 100.437C88.858 100.778 89.8704 99.9833 90.2776 98.0524L90.7695 95.7197C91.1722 93.8097 90.5647 92.6841 88.947 92.343ZM102.288 98.1485L101.796 100.481C101.516 101.807 100.96 102.79 100.127 103.432C99.3066 104.066 98.2754 104.252 97.0333 103.99C95.7913 103.728 94.9177 103.141 94.4126 102.227C93.9202 101.306 93.8137 100.182 94.0932 98.857L94.5851 96.5243C94.8624 95.2092 95.4112 94.2348 96.2316 93.6011C97.0647 92.9592 98.1022 92.7692 99.3442 93.0311C100.586 93.293 101.453 93.8846 101.946 94.8061C102.451 95.7193 102.565 96.8334 102.288 98.1485ZM100.879 97.8514C101.083 96.8807 101.032 96.0904 100.725 95.4806C100.43 94.8624 99.8805 94.4686 99.0768 94.2992C98.2836 94.1319 97.6221 94.2704 97.0924 94.7147C96.5649 95.1485 96.1988 95.8507 95.9941 96.8214L95.5022 99.1541C95.2953 100.135 95.3445 100.936 95.6497 101.556C95.955 102.177 96.5042 102.57 97.2974 102.738C98.1011 102.907 98.7626 102.769 99.2819 102.322C99.8116 101.878 100.18 101.165 100.387 100.184L100.879 97.8514ZM109.013 102.02C108.807 103.001 108.84 103.798 109.114 104.412C109.401 105.017 109.951 105.406 110.765 105.577C111.12 105.652 111.478 105.684 111.84 105.673C112.202 105.663 112.645 105.603 113.17 105.496L113.379 106.75C112.819 106.872 112.299 106.937 111.818 106.944C111.336 106.952 110.882 106.91 110.454 106.82C109.222 106.56 108.37 105.977 107.896 105.071C107.422 104.164 107.325 103.048 107.604 101.722L108.1 99.374C108.379 98.0485 108.919 97.0667 109.718 96.4286C110.518 95.7905 111.533 95.6013 112.765 95.861C113.193 95.9513 113.625 96.097 114.063 96.2982C114.51 96.5016 114.95 96.7687 115.382 97.0996L114.696 98.1813C113.929 97.6273 113.212 97.2799 112.544 97.139C111.73 96.9674 111.07 97.1007 110.563 97.5389C110.067 97.9793 109.716 98.6901 109.509 99.6712L109.013 102.02ZM120.84 108.928C120.36 108.827 119.997 108.636 119.751 108.355C119.515 108.077 119.374 107.763 119.327 107.416C118.721 107.757 118.19 107.977 117.733 108.077C117.278 108.166 116.842 108.167 116.424 108.079C115.746 107.936 115.291 107.611 115.06 107.104C114.829 106.598 114.78 106.026 114.915 105.39C115.005 104.962 115.163 104.597 115.39 104.296C115.617 103.995 115.939 103.79 116.354 103.682C116.771 103.563 117.299 103.57 117.935 103.705C118.217 103.764 118.521 103.85 118.846 103.962C119.173 104.064 119.504 104.177 119.837 104.302L120.058 103.253C120.181 102.668 120.135 102.244 119.918 101.981C119.713 101.709 119.366 101.521 118.875 101.417C118.207 101.277 117.423 101.302 116.521 101.493L116.339 100.343C116.865 100.225 117.359 100.155 117.822 100.132C118.284 100.11 118.74 100.146 119.189 100.241C119.92 100.395 120.453 100.633 120.788 100.954C121.124 101.276 121.323 101.65 121.385 102.077C121.448 102.505 121.429 102.953 121.33 103.423L120.624 106.773C120.573 107.013 120.577 107.227 120.636 107.414C120.697 107.59 120.868 107.708 121.15 107.767L121.322 107.804L121.075 108.978L120.84 108.928ZM116.186 105.641C116.111 105.996 116.134 106.301 116.255 106.555C116.376 106.81 116.593 106.97 116.906 107.036C117.177 107.093 117.507 107.081 117.895 106.999C118.285 106.907 118.792 106.671 119.418 106.29L119.626 105.304C118.94 105.039 118.326 104.85 117.783 104.735C117.303 104.634 116.938 104.661 116.687 104.815C116.437 104.969 116.27 105.245 116.186 105.641ZM128.049 103.368C127.757 103.306 127.397 103.307 126.969 103.369C126.552 103.434 126.02 103.633 125.372 103.965L124.194 109.554L122.91 109.283L124.544 101.533L125.765 101.791L125.537 102.871C126.19 102.518 126.759 102.3 127.245 102.217C127.742 102.137 128.199 102.141 128.616 102.229C129.336 102.381 129.836 102.726 130.115 103.264C130.406 103.794 130.464 104.477 130.288 105.312L129.172 110.604L127.888 110.333L128.965 105.229C129.189 104.165 128.884 103.544 128.049 103.368ZM137.505 112.442C137.025 112.341 136.662 112.15 136.416 111.869C136.18 111.591 136.039 111.278 135.992 110.93C135.386 111.271 134.855 111.491 134.398 111.591C133.943 111.68 133.506 111.681 133.089 111.593C132.411 111.45 131.956 111.125 131.725 110.619C131.494 110.112 131.445 109.54 131.579 108.904C131.67 108.476 131.828 108.111 132.055 107.81C132.282 107.509 132.603 107.305 133.019 107.196C133.436 107.077 133.963 107.084 134.6 107.219C134.882 107.278 135.185 107.364 135.511 107.476C135.838 107.578 136.168 107.691 136.502 107.816L136.723 106.767C136.846 106.182 136.799 105.758 136.582 105.495C136.378 105.223 136.031 105.035 135.54 104.931C134.872 104.791 134.087 104.816 133.186 105.007L133.003 103.857C133.53 103.739 134.024 103.669 134.487 103.646C134.949 103.624 135.405 103.66 135.854 103.755C136.584 103.909 137.117 104.147 137.453 104.468C137.788 104.79 137.988 105.164 138.05 105.591C138.112 106.019 138.094 106.467 137.995 106.937L137.289 110.287C137.238 110.527 137.242 110.741 137.301 110.928C137.362 111.104 137.533 111.222 137.815 111.281L137.987 111.318L137.74 112.492L137.505 112.442ZM132.851 109.155C132.776 109.51 132.799 109.815 132.92 110.069C133.04 110.324 133.257 110.484 133.571 110.55C133.842 110.607 134.172 110.595 134.559 110.513C134.949 110.421 135.457 110.185 136.082 109.804L136.29 108.818C135.605 108.553 134.991 108.364 134.448 108.249C133.968 108.148 133.603 108.175 133.352 108.329C133.101 108.483 132.934 108.759 132.851 109.155ZM144.287 113.791L144.515 112.711C143.938 113.069 143.431 113.3 142.995 113.404C142.571 113.5 142.151 113.504 141.733 113.416C140.909 113.242 140.338 112.795 140.022 112.074C139.715 111.355 139.681 110.432 139.919 109.305L140.11 108.397C140.341 107.301 140.796 106.487 141.476 105.954C142.165 105.424 143.032 105.268 144.076 105.488C144.378 105.552 144.674 105.647 144.964 105.774C145.253 105.9 145.537 106.053 145.816 106.232L146.667 102.192L147.951 102.463L145.508 114.048L144.287 113.791ZM141.249 109.586C141.078 110.4 141.076 111.026 141.245 111.465C141.427 111.896 141.774 112.165 142.285 112.273C142.588 112.337 142.916 112.33 143.271 112.252C143.627 112.164 144.101 111.931 144.693 111.554L145.565 107.421C145.291 107.222 145.018 107.066 144.747 106.955C144.479 106.833 144.209 106.743 143.938 106.686C143.228 106.536 142.671 106.642 142.268 107.004C141.875 107.368 141.599 107.926 141.441 108.678L141.249 109.586ZM153.925 115.905C153.445 115.804 153.082 115.613 152.836 115.332C152.6 115.053 152.459 114.74 152.412 114.392C151.806 114.733 151.275 114.954 150.818 115.053C150.363 115.143 149.927 115.144 149.509 115.055C148.831 114.912 148.376 114.588 148.145 114.081C147.914 113.574 147.865 113.003 148 112.366C148.09 111.938 148.248 111.574 148.475 111.273C148.702 110.972 149.023 110.767 149.439 110.658C149.856 110.539 150.384 110.547 151.02 110.681C151.302 110.741 151.605 110.826 151.931 110.939C152.258 111.04 152.588 111.154 152.922 111.278L153.143 110.229C153.266 109.645 153.219 109.221 153.003 108.957C152.798 108.685 152.451 108.497 151.96 108.394C151.292 108.253 150.508 108.278 149.606 108.47L149.423 107.319C149.95 107.201 150.444 107.131 150.907 107.109C151.369 107.086 151.825 107.123 152.274 107.217C153.004 107.371 153.538 107.609 153.873 107.931C154.209 108.252 154.408 108.627 154.47 109.054C154.533 109.481 154.514 109.93 154.415 110.4L153.709 113.75C153.658 113.99 153.662 114.203 153.721 114.39C153.782 114.567 153.953 114.684 154.235 114.744L154.407 114.78L154.16 115.954L153.925 115.905ZM149.271 112.618C149.196 112.973 149.219 113.277 149.34 113.532C149.461 113.786 149.678 113.946 149.991 114.012C150.262 114.07 150.592 114.057 150.98 113.976C151.37 113.883 151.877 113.647 152.503 113.267L152.711 112.28C152.025 112.016 151.411 111.826 150.868 111.712C150.388 111.611 150.023 111.637 149.772 111.792C149.522 111.946 149.355 112.221 149.271 112.618Z" fill="#0E3C66"/>
</g>
<defs>
<clipPath id="clip0_402_34">
<rect width="182.639" height="113.084" fill="white" transform="matrix(-0.978483 -0.20633 -0.20633 0.978483 202.042 37.6839)"/>
</clipPath>
</defs>
</svg>
