<svg width="203" height="149" viewBox="0 0 203 149" fill="none" xmlns="http://www.w3.org/2000/svg">
<g clip-path="url(#clip0)">
<path d="M50.1753 76.0039L19.8794 52.5129C16.9685 50.256 12.5012 51.3676 11.8377 54.5141L6.42479 80.1838C5.7613 83.3303 9.39942 86.151 12.9737 85.2617L50.1753 76.0039Z" fill="#ED76B7"/>
<path d="M45.3437 74.8253C50.8823 101.527 75.0774 124.839 107.776 131.735C140.475 138.63 172.024 127.071 187.872 104.88C184.196 87.1574 172.305 70.9286 155.163 60.0048C139.086 49.7521 119.395 44.8936 100.557 46.19C77.4748 47.7644 57.0965 58.3699 45.3437 74.8253Z" fill="#FFDFF3"/>
<path d="M105.318 23.6056L100.493 46.4876C119.291 45.2125 138.988 50.0455 155.102 60.2943L113.708 21.8996C110.896 19.2904 106.019 20.2823 105.318 23.6056Z" fill="#ED76B7"/>
<path d="M87.6349 77.0145L87.3675 78.2826L81.5435 77.0545L83.7884 66.4086L85.1505 66.6958L83.173 76.0736L87.6349 77.0145ZM96.0832 75.5746L95.8852 76.514C95.6519 77.6203 95.1811 78.4313 94.4728 78.9469C93.7749 79.4647 92.8989 79.6125 91.8448 79.3902C90.8011 79.1701 90.0593 78.6812 89.6195 77.9235C89.1797 77.1658 89.0765 76.2338 89.3098 75.1275L89.5078 74.1881C89.7367 73.1026 90.2001 72.301 90.898 71.7832C91.6085 71.2571 92.4908 71.1052 93.5449 71.3275C94.5991 71.5498 95.3397 72.0439 95.7669 72.8099C96.2067 73.5676 96.3121 74.4892 96.0832 75.5746ZM94.7525 75.294C94.9088 74.553 94.8639 73.9385 94.618 73.4506C94.3742 72.9523 93.934 72.636 93.2973 72.5017C92.6711 72.3697 92.1407 72.4813 91.706 72.8366C91.284 73.1836 90.9948 73.7277 90.8386 74.4687L90.6405 75.4081C90.4776 76.1804 90.5192 76.8105 90.7651 77.2985C91.0215 77.7886 91.4628 78.0996 92.0891 78.2317C92.7257 78.366 93.2551 78.2595 93.6771 77.9125C94.0991 77.5654 94.3916 77.0057 94.5544 76.2334L94.7525 75.294ZM103.493 82.6968C103.333 83.4587 102.891 84.0033 102.168 84.3305C101.455 84.6599 100.556 84.7101 99.4707 84.4812C98.928 84.3668 98.3745 84.1738 97.8104 83.9022C97.2568 83.6328 96.7531 83.2814 96.2995 82.8478L96.9491 81.9382C97.4094 82.3405 97.8674 82.6497 98.3233 82.8657C98.7875 83.0944 99.2491 83.2572 99.7084 83.354C100.418 83.5037 100.99 83.5044 101.425 83.3562C101.859 83.208 102.117 82.9409 102.199 82.5547C102.258 82.2729 102.211 82.0339 102.056 81.8377C101.899 81.652 101.611 81.5151 101.194 81.4271L99.3935 81.0474C98.7151 80.9044 98.2587 80.6391 98.0242 80.2518C97.7898 79.8644 97.7133 79.4776 97.7947 79.0914C97.8519 78.8201 97.9707 78.5671 98.1509 78.3326C98.3334 78.0877 98.5669 77.8589 98.8516 77.6464C98.5325 77.3502 98.303 76.9911 98.163 76.5692C98.0253 76.1368 98.0136 75.6492 98.1281 75.1065C98.2535 74.5116 98.4833 74.0422 98.8174 73.6984C99.162 73.3568 99.5692 73.132 100.039 73.0239C100.511 72.9054 101.013 72.9023 101.545 73.0145L101.811 73.0707C102.177 73.1477 102.5 73.2703 102.78 73.4385L105.567 74.0261L105.326 75.169L103.685 74.5776C103.864 74.8117 103.992 75.0839 104.069 75.3944C104.147 75.6943 104.144 76.0426 104.061 76.4392C103.942 77.0029 103.711 77.4502 103.369 77.7814C103.037 78.1147 102.635 78.3407 102.163 78.4592C101.693 78.5672 101.198 78.5663 100.676 78.4562L100.41 78.4001C100.274 78.3715 100.145 78.3388 100.022 78.3019C99.9007 78.2546 99.7798 78.2073 99.659 78.1601C99.2859 78.4302 99.0652 78.7271 98.997 79.0506C98.909 79.4681 99.1572 79.7385 99.7417 79.8617L101.495 80.2315C102.247 80.3899 102.801 80.6813 103.159 81.1055C103.516 81.5297 103.628 82.0602 103.493 82.6968ZM100.91 77.3447C101.317 77.4305 101.705 77.376 102.073 77.1811C102.441 76.9862 102.681 76.6226 102.793 76.0903C102.904 75.5684 102.83 75.144 102.571 74.817C102.316 74.4797 101.984 74.268 101.577 74.1822L101.311 74.1261C100.893 74.0381 100.499 74.0967 100.129 74.302C99.761 74.4969 99.5219 74.8553 99.4119 75.3772C99.2996 75.9095 99.3725 76.3391 99.6306 76.6661C99.8887 76.993 100.227 77.2005 100.644 77.2885L100.91 77.3447ZM109.028 72.7773L107.587 72.4736L107.891 71.0332L109.331 71.337L109.028 72.7773ZM106.916 82.4047L105.632 82.134L107.266 74.3844L108.55 74.6551L106.916 82.4047ZM111.786 82.4015C112.83 82.6216 113.426 82.3767 113.576 81.667C113.64 81.3643 113.596 81.1045 113.446 80.8874C113.296 80.6704 112.983 80.4464 112.508 80.2155L111.694 79.8148C111.09 79.524 110.672 79.1525 110.441 78.7003C110.211 78.2376 110.154 77.7349 110.268 77.1922C110.352 76.7956 110.517 76.449 110.765 76.1524C111.015 75.8454 111.356 75.6283 111.786 75.5009C112.216 75.3736 112.739 75.3749 113.355 75.5048C113.751 75.5884 114.143 75.7201 114.53 75.8999C114.93 76.0714 115.322 76.3066 115.706 76.6056L115.071 77.6C114.382 77.0949 113.729 76.7775 113.114 76.6476C112.206 76.4561 111.68 76.6996 111.537 77.378C111.482 77.639 111.518 77.881 111.646 78.104C111.773 78.3271 112.054 78.5445 112.489 78.7561L113.304 79.1569C113.958 79.4691 114.407 79.8472 114.651 80.2912C114.895 80.7352 114.955 81.2546 114.829 81.8495C114.739 82.2775 114.563 82.649 114.3 82.9643C114.05 83.2713 113.7 83.481 113.251 83.5935C112.813 83.7082 112.255 83.694 111.576 83.5509C111.127 83.4563 110.689 83.3147 110.26 83.1261C109.841 82.9398 109.419 82.6927 108.993 82.3849L109.562 81.3929C109.974 81.665 110.353 81.8813 110.701 82.0418C111.048 82.2024 111.41 82.3222 111.786 82.4015ZM120.744 85.0262C120.098 85.1952 119.446 85.2104 118.788 85.0717C118.225 84.9529 117.805 84.7445 117.53 84.4467C117.265 84.151 117.106 83.7958 117.052 83.381C117.008 82.9685 117.036 82.5273 117.135 82.0577L118.026 77.8306L116.68 77.5467L116.917 76.4195L118.264 76.7034L118.719 74.5429L120.003 74.8136L119.547 76.9741L122.084 77.5089L121.846 78.6361L119.31 78.1013L118.428 82.2814C118.314 82.8241 118.323 83.2186 118.457 83.4647C118.603 83.7027 118.869 83.8623 119.255 83.9438C119.443 83.9834 119.64 84.0032 119.848 84.0033C120.067 83.9951 120.309 83.9589 120.574 83.8947L120.744 85.0262ZM125.769 76.3075L124.329 76.0037L124.632 74.5634L126.073 74.8671L125.769 76.3075ZM123.657 85.9349L122.373 85.6642L124.007 77.9146L125.291 78.1853L123.657 85.9349ZM128.247 82.3733L128.053 83.297C127.885 84.0902 127.905 84.7212 128.111 85.1899C128.32 85.6481 128.742 85.9443 129.379 86.0786C130.005 86.2107 130.713 86.1908 131.501 86.0191L131.665 87.1819C130.727 87.3876 129.857 87.4057 129.053 87.2363C128.051 87.025 127.357 86.546 126.969 85.7993C126.581 85.0526 126.504 84.1261 126.737 83.0197L126.932 82.096C127.166 80.9897 127.61 80.1732 128.266 79.6466C128.922 79.12 129.751 78.9623 130.753 79.1736C131.129 79.2528 131.504 79.3864 131.879 79.5744C132.266 79.7542 132.645 79.9757 133.014 80.239L132.392 81.2523C132.078 81.0336 131.768 80.8484 131.462 80.6966C131.167 80.5471 130.873 80.4415 130.581 80.3799C129.944 80.2457 129.437 80.3513 129.059 80.6967C128.683 81.0317 128.412 81.5906 128.247 82.3733ZM135.56 87.4146C136.604 87.6347 137.2 87.3899 137.35 86.6802C137.414 86.3775 137.371 86.1176 137.22 85.9006C137.07 85.6835 136.757 85.4596 136.283 85.2287L135.468 84.8279C134.864 84.5371 134.446 84.1656 134.215 83.7134C133.985 83.2508 133.928 82.7481 134.042 82.2054C134.126 81.8088 134.292 81.4622 134.539 81.1656C134.789 80.8586 135.13 80.6414 135.56 80.5141C135.99 80.3868 136.513 80.3881 137.129 80.5179C137.525 80.6016 137.917 80.7333 138.305 80.913C138.704 81.0845 139.096 81.3198 139.48 81.6188L138.845 82.6132C138.156 82.1081 137.504 81.7906 136.888 81.6608C135.98 81.4693 135.454 81.7128 135.311 82.3912C135.256 82.6521 135.292 82.8941 135.42 83.1172C135.547 83.3403 135.828 83.5577 136.263 83.7693L137.078 84.1701C137.732 84.4823 138.181 84.8604 138.425 85.3044C138.669 85.7483 138.729 86.2678 138.603 86.8627C138.513 87.2906 138.337 87.6622 138.074 87.9775C137.824 88.2845 137.474 88.4942 137.026 88.6067C136.587 88.7214 136.029 88.7072 135.35 88.5641C134.902 88.4695 134.463 88.3279 134.034 88.1393C133.615 87.9529 133.193 87.7059 132.767 87.3981L133.336 86.4061C133.748 86.6782 134.127 86.8945 134.475 87.055C134.823 87.2155 135.184 87.3354 135.56 87.4146ZM153.125 94.8794C152.462 95.0231 151.754 95.0973 151.001 95.102C150.258 95.1089 149.522 95.0353 148.791 94.8813C147.403 94.5886 146.278 94.057 145.416 93.2865C144.564 92.5182 143.988 91.5791 143.688 90.4693C143.387 89.3595 143.377 88.1419 143.657 86.8163C143.886 85.7309 144.264 84.7641 144.791 83.9161C145.321 83.0576 145.967 82.3489 146.728 81.7899C147.489 81.2309 148.337 80.8537 149.272 80.6585C150.209 80.4528 151.195 80.4589 152.228 80.6767C153.188 80.8792 154.025 81.2248 154.74 81.7134C155.455 82.202 156.038 82.7938 156.491 83.4889C156.944 84.184 157.241 84.9497 157.381 85.7858C157.533 86.6138 157.515 87.4765 157.325 88.3741C157.143 89.2404 156.828 89.9808 156.383 90.5954C155.947 91.2122 155.428 91.6587 154.825 91.9348C154.232 92.2132 153.607 92.283 152.949 92.1443C152.448 92.0387 152.053 91.8463 151.763 91.5671C151.483 91.2902 151.344 90.9174 151.345 90.4488C150.79 90.8551 150.277 91.1175 149.805 91.236C149.344 91.3568 148.904 91.3731 148.487 91.2851C147.996 91.1816 147.619 90.9549 147.355 90.6049C147.103 90.2466 146.973 89.8049 146.964 89.2797C146.957 88.744 147.067 88.1678 147.295 87.5509L147.602 86.7163C147.979 85.7056 148.503 84.9767 149.175 84.5298C149.86 84.0746 150.672 83.946 151.611 84.1441C152.123 84.2519 152.6 84.4452 153.042 84.7239C153.498 84.9943 153.923 85.3293 154.318 85.7288L152.817 89.5164C152.598 90.0371 152.545 90.4184 152.657 90.6601C152.782 90.8937 152.991 91.0412 153.283 91.1029C153.649 91.1799 154.018 91.1105 154.39 90.8947C154.773 90.6812 155.118 90.3396 155.424 89.87C155.732 89.3899 155.959 88.8055 156.104 88.1166C156.313 87.1251 156.281 86.1917 156.008 85.3165C155.737 84.4308 155.258 83.6759 154.572 83.0516C153.899 82.419 153.04 81.9927 151.997 81.7726C151.141 81.5922 150.324 81.5889 149.546 81.7628C148.768 81.9367 148.061 82.2671 147.424 82.7542C146.8 83.2331 146.263 83.8394 145.814 84.5732C145.375 85.3092 145.058 86.1416 144.862 87.0705C144.627 88.1873 144.623 89.2113 144.852 90.1426C145.093 91.0656 145.562 91.8403 146.259 92.4668C146.963 93.106 147.885 93.5455 149.022 93.7854C149.669 93.9218 150.333 93.98 151.013 93.9599C151.691 93.9502 152.329 93.8722 152.927 93.7257L153.125 94.8794ZM148.61 87.8282C148.359 88.5055 148.27 89.0538 148.345 89.4729C148.433 89.8839 148.675 90.1312 149.072 90.2148C149.375 90.2786 149.74 90.2249 150.169 90.0537C150.597 89.8824 151.091 89.534 151.648 89.0084L152.812 86.0489C152.36 85.6592 151.904 85.416 151.445 85.3191C150.829 85.1893 150.315 85.277 149.902 85.5823C149.488 85.8876 149.16 86.3581 148.917 86.9936L148.61 87.8282ZM83.4164 91.1768L83.6871 89.893L91.2488 91.4876L90.9781 92.7713L87.8782 92.1177L85.9041 101.48L84.542 101.193L86.5162 91.8305L83.4164 91.1768ZM95.2583 102.978C94.7403 103.109 94.2376 103.166 93.7503 103.151C93.2608 103.146 92.8178 103.101 92.4212 103.018C91.3044 102.782 90.5365 102.288 90.1176 101.534C89.7091 100.783 89.6215 99.8545 89.8548 98.7482L90.0529 97.8088C90.2796 96.7338 90.7325 95.93 91.4117 95.3973C92.1013 94.8668 92.9471 94.7073 93.9491 94.9185C94.4814 95.0308 94.9436 95.2427 95.3358 95.5543C95.7405 95.8577 96.0272 96.2561 96.1957 96.7495C96.3768 97.2346 96.3958 97.8164 96.2528 98.4948C96.1603 98.9332 95.9921 99.4209 95.748 99.9581L91.1295 98.9843L91.1229 99.0156C90.9557 99.8088 90.9909 100.443 91.2286 100.918C91.4768 101.396 91.9662 101.712 92.6968 101.866C93.0307 101.936 93.4048 101.971 93.8191 101.971C94.2437 101.974 94.6678 101.927 95.0914 101.831L95.2583 102.978ZM93.7114 96.0458C93.106 95.9181 92.605 96.0196 92.2083 96.3502C91.8241 96.6725 91.5416 97.1852 91.3606 97.8884L94.8675 98.6279C94.9384 98.4466 94.9915 98.2725 95.0267 98.1055C95.15 97.521 95.0732 97.0578 94.7964 96.7161C94.5323 96.366 94.1706 96.1426 93.7114 96.0458ZM99.2537 99.7653L99.0589 100.689C98.8917 101.482 98.9112 102.113 99.1176 102.582C99.3262 103.04 99.7489 103.336 100.386 103.471C101.012 103.603 101.719 103.583 102.507 103.411L102.671 104.574C101.734 104.78 100.863 104.798 100.06 104.628C99.0577 104.417 98.3629 103.938 97.9753 103.191C97.5877 102.445 97.5106 101.518 97.7438 100.412L97.9386 99.488C98.1719 98.3817 98.6166 97.5652 99.2727 97.0386C99.9288 96.512 100.758 96.3543 101.76 96.5656C102.136 96.6448 102.511 96.7784 102.885 96.9664C103.273 97.1462 103.651 97.3677 104.021 97.631L103.398 98.6443C103.085 98.4256 102.775 98.2404 102.469 98.0886C102.173 97.9391 101.879 97.8335 101.587 97.7719C100.951 97.6377 100.443 97.7432 100.065 98.0887C99.6892 98.4237 99.4188 98.9825 99.2537 99.7653ZM109.603 99.4785C109.311 99.4169 108.951 99.4173 108.524 99.4798C108.107 99.5445 107.574 99.7429 106.926 100.075L105.748 105.664L104.464 105.393L106.907 93.8083L108.191 94.079L107.164 98.9479C107.804 98.6031 108.36 98.3934 108.834 98.3189C109.307 98.2443 109.753 98.251 110.17 98.3391C110.891 98.4909 111.39 98.8361 111.669 99.3746C111.961 99.9048 112.018 100.587 111.842 101.422L110.726 106.714L109.443 106.443L110.519 101.34C110.743 100.275 110.438 99.6546 109.603 99.4785ZM113.69 107.339L115.935 96.693L117.359 96.9934C118.023 98.5505 118.606 100.102 119.109 101.647C119.624 103.183 120.074 104.772 120.459 106.412L121.161 102.308L122.072 97.9871L123.402 98.2677L121.158 108.914L119.733 108.613C119.324 106.935 118.879 105.294 118.4 103.688C117.934 102.075 117.387 100.482 116.759 98.9108L115.938 103.267L115.021 107.619L113.69 107.339ZM131.272 106.501L131.074 107.44C130.841 108.546 130.37 109.357 129.662 109.873C128.964 110.391 128.088 110.538 127.034 110.316C125.99 110.096 125.248 109.607 124.808 108.849C124.368 108.092 124.265 107.16 124.498 106.053L124.697 105.114C124.925 104.029 125.389 103.227 126.087 102.709C126.797 102.183 127.68 102.031 128.734 102.253C129.788 102.476 130.528 102.97 130.956 103.736C131.395 104.494 131.501 105.415 131.272 106.501ZM129.941 106.22C130.097 105.479 130.053 104.864 129.807 104.377C129.563 103.878 129.123 103.562 128.486 103.428C127.86 103.296 127.329 103.407 126.895 103.763C126.473 104.11 126.184 104.654 126.027 105.395L125.829 106.334C125.666 107.106 125.708 107.736 125.954 108.224C126.21 108.714 126.652 109.026 127.278 109.158C127.914 109.292 128.444 109.185 128.866 108.838C129.288 108.491 129.58 107.932 129.743 107.159L129.941 106.22ZM139.836 104.758L135.462 111.93L134.256 111.676L133.119 103.342L134.45 103.622L134.954 107.669L135.238 110.199L136.504 107.996L138.568 104.491L139.836 104.758ZM145.57 114.143C145.09 114.042 144.726 113.851 144.48 113.57C144.245 113.291 144.104 112.978 144.057 112.63C143.451 112.971 142.92 113.192 142.462 113.292C142.008 113.381 141.571 113.382 141.154 113.294C140.475 113.151 140.021 112.826 139.79 112.319C139.558 111.813 139.51 111.241 139.644 110.604C139.735 110.176 139.893 109.812 140.12 109.511C140.347 109.21 140.668 109.005 141.084 108.897C141.501 108.777 142.028 108.785 142.665 108.919C142.947 108.979 143.25 109.065 143.575 109.177C143.903 109.278 144.233 109.392 144.567 109.517L144.788 108.468C144.911 107.883 144.864 107.459 144.647 107.195C144.443 106.923 144.096 106.736 143.605 106.632C142.937 106.491 142.152 106.517 141.251 106.708L141.068 105.558C141.595 105.44 142.089 105.369 142.552 105.347C143.014 105.325 143.47 105.361 143.919 105.455C144.649 105.61 145.182 105.847 145.518 106.169C145.853 106.49 146.052 106.865 146.115 107.292C146.177 107.72 146.159 108.168 146.06 108.638L145.354 111.988C145.303 112.228 145.307 112.442 145.366 112.628C145.427 112.805 145.598 112.923 145.88 112.982L146.052 113.018L145.804 114.193L145.57 114.143ZM140.916 110.856C140.841 111.211 140.864 111.516 140.985 111.77C141.105 112.024 141.322 112.185 141.635 112.251C141.907 112.308 142.236 112.296 142.624 112.214C143.014 112.122 143.522 111.885 144.147 111.505L144.355 110.519C143.67 110.254 143.056 110.065 142.513 109.95C142.033 109.849 141.668 109.875 141.417 110.03C141.166 110.184 140.999 110.459 140.916 110.856Z" fill="#0E3C66"/>
</g>
<defs>
<clipPath id="clip0">
<rect width="182.639" height="113.084" fill="white" transform="matrix(-0.978483 -0.20633 -0.20633 0.978483 202.042 37.684)"/>
</clipPath>
</defs>
</svg>
