<svg width="203" height="149" viewBox="0 0 203 149" fill="none" xmlns="http://www.w3.org/2000/svg">
<g clip-path="url(#clip0_402_34)">
<path d="M50.1753 76.0039L19.8793 52.5129C16.9684 50.256 12.5011 51.3676 11.8376 54.5141L6.42471 80.1838C5.76122 83.3303 9.39934 86.151 12.9737 85.2617L50.1753 76.0039Z" fill="#ED76B7"/>
<path d="M45.3436 74.8252C50.8822 101.527 75.0773 124.839 107.776 131.734C140.475 138.63 172.024 127.071 187.872 104.88C184.196 87.1573 172.305 70.9286 155.163 60.0048C139.086 49.7521 119.395 44.8936 100.556 46.19C77.4747 47.7644 57.0964 58.3698 45.3436 74.8252Z" fill="#FFDFF3"/>
<path d="M105.318 23.6056L100.493 46.4875C119.291 45.2125 138.988 50.0455 155.101 60.2942L113.708 21.8995C110.896 19.2903 106.019 20.2822 105.318 23.6056Z" fill="#ED76B7"/>
<path d="M83.9132 77.5542L86.1581 66.9083L89.4614 67.6048C90.6826 67.8623 91.5438 68.4309 92.0451 69.3106C92.5486 70.1799 92.6639 71.2616 92.391 72.5558L91.8991 74.8885C91.624 76.1932 91.0795 77.1467 90.2657 77.7491C89.4541 78.341 88.4377 78.5082 87.2166 78.2507L83.9132 77.5542ZM89.1594 68.882L87.2494 68.4792L85.5427 76.5733L87.4527 76.976C89.0704 77.3171 90.0829 76.5223 90.49 74.5914L90.9819 72.2587C91.3847 70.3487 90.7772 69.2231 89.1594 68.882ZM99.3159 80.3279C98.7978 80.4584 98.2951 80.516 97.8078 80.5004C97.3183 80.4953 96.8753 80.4509 96.4787 80.3673C95.3619 80.1318 94.594 79.6374 94.1751 78.8841C93.7666 78.133 93.6791 77.2043 93.9123 76.0979L94.1104 75.1586C94.3371 74.0836 94.79 73.2797 95.4692 72.7471C96.1588 72.2166 97.0046 72.057 98.0066 72.2683C98.5389 72.3805 99.0011 72.5925 99.3933 72.9041C99.798 73.2075 100.085 73.6058 100.253 74.0992C100.434 74.5844 100.453 75.1662 100.31 75.8446C100.218 76.2829 100.05 76.7707 99.8055 77.3079L95.1871 76.334L95.1805 76.3653C95.0132 77.1586 95.0484 77.7928 95.2861 78.2681C95.5343 78.7456 96.0237 79.0613 96.7543 79.2154C97.0883 79.2858 97.4624 79.3211 97.8766 79.3212C98.3012 79.3236 98.7254 79.2767 99.1489 79.1807L99.3159 80.3279ZM97.7689 73.3955C97.1636 73.2679 96.6625 73.3693 96.2658 73.6999C95.8817 74.0223 95.5991 74.535 95.4181 75.2381L98.925 75.9776C98.996 75.7963 99.049 75.6222 99.0842 75.4552C99.2075 74.8707 99.1307 74.4076 98.854 74.0658C98.5898 73.7158 98.2281 73.4924 97.7689 73.3955ZM108.76 74.6993L104.386 81.8711L103.18 81.6169L102.043 73.283L103.374 73.5636L103.878 77.6107L104.162 80.1398L105.428 77.9375L107.492 74.4319L108.76 74.6993ZM117.743 77.9017L117.251 80.2344C116.972 81.56 116.415 82.5437 115.582 83.1856C114.762 83.8193 113.731 84.0052 112.489 83.7433C111.247 83.4814 110.373 82.8939 109.868 81.9806C109.376 81.0592 109.269 79.9357 109.549 78.6102L110.04 76.2775C110.318 74.9624 110.867 73.988 111.687 73.3543C112.52 72.7124 113.558 72.5224 114.8 72.7843C116.042 73.0462 116.909 73.6379 117.401 74.5593C117.906 75.4725 118.02 76.5867 117.743 77.9017ZM116.334 77.6046C116.539 76.634 116.487 75.8437 116.18 75.2338C115.885 74.6157 115.336 74.2219 114.532 74.0524C113.739 73.8851 113.078 74.0236 112.548 74.4679C112.02 74.9017 111.654 75.604 111.449 76.5746L110.958 78.9073C110.751 79.8884 110.8 80.6891 111.105 81.3095C111.41 81.9298 111.96 82.3236 112.753 82.4908C113.556 82.6603 114.218 82.5218 114.737 82.0754C115.267 81.6311 115.635 80.9184 115.842 79.9373L116.334 77.6046ZM122.046 85.7586C121.461 85.6354 120.881 85.3877 120.306 85.0156L119.56 88.5538L118.276 88.2831L120.613 77.1988L121.834 77.4563L121.603 78.5522C122.18 78.1942 122.687 77.9631 123.123 77.8589C123.559 77.7546 123.986 77.7465 124.404 77.8346C125.228 78.0084 125.794 78.4547 126.1 79.1734C126.417 79.8942 126.455 80.8235 126.215 81.9611L126.024 82.8692C125.795 83.9546 125.336 84.7626 124.646 85.293C123.967 85.8257 123.1 85.9809 122.046 85.7586ZM123.836 78.974C123.534 78.9102 123.204 78.9225 122.847 79.0108C122.491 79.0991 122.017 79.3316 121.425 79.7083L120.553 83.8414C120.827 84.0409 121.099 84.2017 121.367 84.3237C121.638 84.4353 121.909 84.5197 122.181 84.577C122.89 84.7266 123.447 84.6205 123.85 84.2586C124.256 83.8863 124.537 83.3296 124.693 82.5886L124.884 81.6805C125.056 80.8664 125.052 80.2388 124.873 79.7976C124.704 79.3586 124.358 79.0841 123.836 78.974ZM129.781 86.1959C130.824 86.416 131.421 86.1712 131.571 85.4615C131.635 85.1588 131.591 84.8989 131.441 84.6819C131.29 84.4648 130.978 84.2409 130.503 84.01L129.688 83.6092C129.085 83.3184 128.667 82.9469 128.435 82.4947C128.206 82.0321 128.148 81.5294 128.263 80.9867C128.347 80.5901 128.512 80.2435 128.76 79.9469C129.01 79.6399 129.35 79.4227 129.781 79.2954C130.211 79.1681 130.734 79.1694 131.35 79.2992C131.746 79.3828 132.138 79.5145 132.525 79.6943C132.925 79.8658 133.317 80.1011 133.701 80.4001L133.066 81.3945C132.377 80.8894 131.724 80.5719 131.109 80.4421C130.2 80.2506 129.675 80.4941 129.532 81.1725C129.477 81.4334 129.513 81.6754 129.64 81.8985C129.768 82.1216 130.049 82.339 130.484 82.5506L131.299 82.9514C131.953 83.2636 132.401 83.6417 132.646 84.0857C132.89 84.5296 132.95 85.0491 132.824 85.644C132.734 86.0719 132.557 86.4435 132.295 86.7588C132.045 87.0658 131.695 87.2755 131.246 87.388C130.808 87.5027 130.249 87.4885 129.571 87.3454C129.122 87.2508 128.683 87.1092 128.254 86.9206C127.836 86.7342 127.414 86.4872 126.988 86.1794L127.557 85.1874C127.968 85.4595 128.348 85.6758 128.696 85.8363C129.043 85.9968 129.405 86.1167 129.781 86.1959ZM147.345 93.6607C146.683 93.8044 145.975 93.8786 145.222 93.8833C144.479 93.8902 143.742 93.8166 143.012 93.6626C141.624 93.3699 140.499 92.8383 139.636 92.0678C138.784 91.2995 138.208 90.3604 137.908 89.2506C137.608 88.1408 137.598 86.9232 137.877 85.5976C138.106 84.5122 138.485 83.5454 139.012 82.6974C139.542 81.8389 140.188 81.1302 140.949 80.5712C141.71 80.0122 142.558 79.635 143.493 79.4398C144.43 79.2341 145.415 79.2401 146.449 79.458C147.409 79.6605 148.246 80.0061 148.961 80.4947C149.675 80.9833 150.259 81.5751 150.712 82.2702C151.165 82.9653 151.462 83.731 151.601 84.5671C151.754 85.3951 151.735 86.2578 151.546 87.1554C151.363 88.0217 151.049 88.7621 150.604 89.3767C150.168 89.9935 149.649 90.44 149.046 90.7161C148.453 90.9944 147.828 91.0643 147.17 90.9256C146.669 90.82 146.274 90.6276 145.984 90.3484C145.704 90.0715 145.565 89.6987 145.565 89.2301C145.011 89.6364 144.498 89.8988 144.026 90.0173C143.564 90.138 143.125 90.1544 142.707 90.0664C142.217 89.9629 141.839 89.7362 141.575 89.3861C141.324 89.0279 141.193 88.5862 141.184 88.061C141.177 87.5253 141.288 86.9491 141.516 86.3322L141.823 85.4976C142.2 84.4869 142.724 83.758 143.396 83.3111C144.081 82.8559 144.893 82.7273 145.832 82.9254C146.343 83.0332 146.82 83.2265 147.263 83.5052C147.718 83.7756 148.144 84.1106 148.539 84.5101L147.037 88.2977C146.819 88.8184 146.765 89.1997 146.878 89.4414C147.003 89.675 147.212 89.8225 147.504 89.8842C147.869 89.9612 148.238 89.8918 148.611 89.676C148.994 89.4625 149.338 89.1209 149.645 88.6513C149.953 88.1712 150.18 87.5868 150.325 86.8979C150.534 85.9064 150.502 84.973 150.229 84.0978C149.958 83.2121 149.479 82.4572 148.793 81.8329C148.12 81.2003 147.261 80.774 146.218 80.5539C145.362 80.3735 144.545 80.3702 143.767 80.5441C142.989 80.718 142.281 81.0484 141.645 81.5355C141.02 82.0144 140.484 82.6207 140.035 83.3545C139.596 84.0905 139.279 84.9229 139.083 85.8518C138.847 86.9686 138.844 87.9926 139.073 88.9239C139.314 89.8469 139.783 90.6216 140.48 91.2481C141.184 91.8873 142.105 92.3268 143.243 92.5667C143.89 92.7031 144.554 92.7613 145.234 92.7412C145.912 92.7315 146.55 92.6534 147.147 92.507L147.345 93.6607ZM142.831 86.6095C142.579 87.2868 142.491 87.8351 142.566 88.2542C142.654 88.6652 142.896 88.9125 143.293 88.9961C143.595 89.0599 143.961 89.0062 144.39 88.835C144.818 88.6637 145.311 88.3153 145.869 87.7897L147.033 84.8302C146.581 84.4405 146.125 84.1973 145.666 84.1004C145.05 83.9706 144.536 84.0583 144.122 84.3636C143.709 84.6689 143.381 85.1394 143.138 85.7749L142.831 86.6095ZM81.0779 90.8799L83.9245 89.9431L85.1613 90.2039L82.9164 100.85L81.5857 100.569L83.5268 91.3636L81.4549 92.0386L81.0779 90.8799ZM86.2387 101.55L88.4836 90.9044L91.8026 91.6043C92.8254 91.82 93.5458 92.2553 93.9636 92.9103C94.3941 93.557 94.5147 94.3292 94.3254 95.2268L94.1505 96.0565C93.9612 96.9541 93.538 97.6171 92.8808 98.0454C92.2341 98.4758 91.3993 98.5832 90.3764 98.3676L88.4195 97.9549L87.6007 101.838L86.2387 101.55ZM91.5319 92.8881L89.5749 92.4754L88.6869 96.6868L90.6438 97.0994C91.2074 97.2183 91.6673 97.1572 92.0233 96.9161C92.3898 96.6773 92.6292 96.2917 92.7415 95.7594L92.9164 94.9297C93.0265 94.4078 92.961 93.9688 92.7199 93.6128C92.4915 93.2485 92.0955 93.0069 91.5319 92.8881ZM100.414 104.621C99.934 104.52 99.5709 104.329 99.3249 104.048C99.0893 103.77 98.9482 103.456 98.9017 103.109C98.2956 103.45 97.764 103.67 97.3069 103.77C96.852 103.859 96.4158 103.86 95.9983 103.772C95.3199 103.629 94.8652 103.304 94.634 102.797C94.4029 102.291 94.3545 101.719 94.4888 101.082C94.579 100.655 94.7376 100.29 94.9646 99.9891C95.1916 99.6881 95.5127 99.4833 95.9281 99.3747C96.3456 99.2556 96.8727 99.2632 97.5094 99.3975C97.7912 99.4569 98.0947 99.5427 98.4199 99.6549C98.7473 99.7566 99.0777 99.8699 99.4111 99.9947L99.6323 98.9458C99.7555 98.3613 99.7087 97.9372 99.4918 97.6734C99.2875 97.4014 98.9401 97.2137 98.4496 97.1102C97.7816 96.9694 96.9968 96.9947 96.0953 97.1861L95.9127 96.0357C96.439 95.9177 96.9335 95.8476 97.396 95.8252C97.8586 95.8028 98.3143 95.839 98.7631 95.9336C99.4937 96.0877 100.027 96.3254 100.362 96.6469C100.698 96.9684 100.897 97.3429 100.959 97.7703C101.022 98.1977 101.004 98.6463 100.905 99.1159L100.198 102.466C100.147 102.706 100.152 102.92 100.21 103.107C100.271 103.283 100.443 103.401 100.724 103.46L100.897 103.497L100.649 104.671L100.414 104.621ZM95.7602 101.334C95.6853 101.689 95.7083 101.994 95.8291 102.248C95.9499 102.502 96.1668 102.663 96.4799 102.729C96.7513 102.786 97.0809 102.774 97.4688 102.692C97.8589 102.6 98.3665 102.363 98.9918 101.983L99.1998 100.997C98.5143 100.732 97.9002 100.543 97.3575 100.428C96.8773 100.327 96.512 100.354 96.2615 100.508C96.0109 100.662 95.8438 100.938 95.7602 101.334ZM104.586 104.389C105.63 104.609 106.227 104.364 106.376 103.655C106.44 103.352 106.397 103.092 106.247 102.875C106.096 102.658 105.784 102.434 105.309 102.203L104.494 101.802C103.89 101.512 103.473 101.14 103.241 100.688C103.012 100.225 102.954 99.7225 103.069 99.1798C103.152 98.7832 103.318 98.4366 103.566 98.14C103.816 97.833 104.156 97.6159 104.586 97.4885C105.016 97.3612 105.539 97.3625 106.155 97.4923C106.552 97.576 106.944 97.7077 107.331 97.8874C107.731 98.059 108.123 98.2942 108.507 98.5932L107.872 99.5876C107.182 99.0825 106.53 98.7651 105.914 98.6352C105.006 98.4437 104.481 98.6872 104.338 99.3656C104.283 99.6266 104.319 99.8686 104.446 100.092C104.573 100.315 104.855 100.532 105.29 100.744L106.105 101.144C106.758 101.457 107.207 101.835 107.451 102.279C107.696 102.723 107.755 103.242 107.63 103.837C107.54 104.265 107.363 104.637 107.1 104.952C106.85 105.259 106.501 105.469 106.052 105.581C105.614 105.696 105.055 105.682 104.377 105.539C103.928 105.444 103.489 105.302 103.06 105.114C102.641 104.927 102.219 104.68 101.794 104.372L102.363 103.381C102.774 103.653 103.154 103.869 103.501 104.029C103.849 104.19 104.211 104.31 104.586 104.389ZM111.329 105.811C112.372 106.031 112.969 105.786 113.119 105.076C113.183 104.774 113.139 104.514 112.989 104.297C112.838 104.08 112.526 103.856 112.051 103.625L111.236 103.224C110.633 102.933 110.215 102.562 109.983 102.11C109.754 101.647 109.696 101.144 109.811 100.602C109.895 100.205 110.06 99.8583 110.308 99.5618C110.558 99.2548 110.898 99.0376 111.329 98.9103C111.759 98.783 112.282 98.7842 112.898 98.9141C113.294 98.9977 113.686 99.1294 114.073 99.3092C114.473 99.4807 114.865 99.716 115.249 100.015L114.614 101.009C113.925 100.504 113.272 100.187 112.657 100.057C111.748 99.8655 111.223 100.109 111.08 100.787C111.025 101.048 111.061 101.29 111.188 101.513C111.316 101.736 111.597 101.954 112.032 102.165L112.847 102.566C113.501 102.878 113.949 103.257 114.194 103.701C114.438 104.145 114.498 104.664 114.372 105.259C114.282 105.687 114.105 106.058 113.843 106.374C113.593 106.681 113.243 106.89 112.794 107.003C112.356 107.118 111.797 107.103 111.119 106.96C110.67 106.866 110.231 106.724 109.802 106.535C109.384 106.349 108.962 106.102 108.536 105.794L109.105 104.802C109.516 105.074 109.896 105.291 110.244 105.451C110.591 105.612 110.953 105.732 111.329 105.811ZM126.949 102.041L123.327 109.371L121.84 109.057L121.552 102.358L118.536 108.361L117.049 108.047L116.711 99.8816L118.026 100.159L118.125 103.565L118.153 106.923L121.188 100.826L122.55 101.113L122.859 107.948L124.227 104.868L125.681 101.773L126.949 102.041ZM134.169 107.111L133.971 108.051C133.738 109.157 133.267 109.968 132.559 110.484C131.861 111.002 130.985 111.149 129.931 110.927C128.887 110.707 128.145 110.218 127.705 109.46C127.266 108.703 127.162 107.771 127.396 106.664L127.594 105.725C127.823 104.639 128.286 103.838 128.984 103.32C129.694 102.794 130.577 102.642 131.631 102.864C132.685 103.087 133.426 103.581 133.853 104.347C134.293 105.104 134.398 106.026 134.169 107.111ZM132.838 106.831C132.995 106.09 132.95 105.475 132.704 104.987C132.46 104.489 132.02 104.173 131.383 104.039C130.757 103.906 130.227 104.018 129.792 104.373C129.37 104.72 129.081 105.264 128.924 106.006L128.726 106.945C128.564 107.717 128.605 108.347 128.851 108.835C129.107 109.325 129.549 109.636 130.175 109.768C130.812 109.903 131.341 109.796 131.763 109.449C132.185 109.102 132.477 108.543 132.64 107.77L132.838 106.831ZM141.051 106.192C140.582 106.093 140.105 106.079 139.621 106.152C139.147 106.226 138.61 106.445 138.01 106.809L136.868 112.226L135.584 111.956L137.218 104.206L138.44 104.464L138.175 105.716C138.818 105.306 139.38 105.043 139.863 104.927C140.355 104.813 140.842 104.807 141.322 104.908L141.051 106.192ZM146.045 114.162L146.273 113.081C145.696 113.439 145.19 113.67 144.753 113.775C144.33 113.871 143.909 113.875 143.492 113.787C142.667 113.613 142.097 113.165 141.78 112.444C141.473 111.726 141.439 110.803 141.677 109.676L141.868 108.768C142.099 107.672 142.555 106.857 143.234 106.325C143.923 105.794 144.79 105.639 145.834 105.859C146.136 105.923 146.432 106.018 146.722 106.145C147.011 106.271 147.295 106.424 147.574 106.602L148.426 102.563L149.709 102.834L147.266 114.419L146.045 114.162ZM143.008 109.956C142.836 110.77 142.835 111.397 143.004 111.836C143.185 112.267 143.532 112.536 144.043 112.644C144.346 112.708 144.675 112.701 145.029 112.623C145.385 112.534 145.86 112.302 146.451 111.925L147.323 107.792C147.049 107.593 146.776 107.437 146.506 107.325C146.237 107.203 145.967 107.114 145.696 107.057C144.986 106.907 144.429 107.013 144.026 107.375C143.633 107.739 143.358 108.297 143.199 109.048L143.008 109.956Z" fill="#143350"/>
</g>
<defs>
<clipPath id="clip0_402_34">
<rect width="182.639" height="113.084" fill="white" transform="matrix(-0.978483 -0.20633 -0.20633 0.978483 202.042 37.6839)"/>
</clipPath>
</defs>
</svg>
