<svg width="217" height="152" viewBox="0 0 217 152" fill="none" xmlns="http://www.w3.org/2000/svg">
<g clip-path="url(#clip0)">
<path d="M58.7276 98.8187L18.7718 90.3361C14.9328 89.5213 10.9915 92.441 11.677 95.5921L17.2698 121.3C17.9553 124.451 22.7534 125.47 25.9068 123.134L58.7276 98.8187Z" fill="#FFB648"/>
<path d="M53.4837 99.9614C70.3202 121.846 104.156 132.704 139.413 125.035C174.669 117.365 200.936 93.4296 207.159 66.5293C195.984 52.0045 177.325 42.3353 155.732 39.72C135.478 37.2602 113.946 41.2377 95.8763 50.4402C73.7303 61.703 58.0992 80.0138 53.4837 99.9614Z" fill="#FFF2CA"/>
<path d="M90.8906 27.5247L95.876 50.4407C113.911 41.2562 135.438 37.2553 155.732 39.7204L98.455 22.3893C94.5634 21.2112 90.1666 24.1964 90.8906 27.5247Z" fill="#FFB648"/>
<path d="M101.745 74.8127C102.4 74.6605 102.871 74.4031 103.159 74.0404C103.444 73.6674 103.523 73.2055 103.395 72.6549C103.289 72.1978 103.075 71.8424 102.753 71.5887C102.441 71.3326 101.991 71.1854 101.402 71.1472L100.052 71.0667C99.2071 71.0114 98.5419 70.7882 98.0568 70.3973C97.5691 69.996 97.2432 69.4421 97.0789 68.7356C96.9532 68.1954 96.9435 67.6829 97.0498 67.1982C97.1665 66.7112 97.4284 66.2834 97.8355 65.9149C98.253 65.5441 98.8461 65.2693 99.615 65.0905C100.082 64.9818 100.579 64.9266 101.104 64.9249C101.627 64.9128 102.171 64.9671 102.735 65.0877L102.571 66.3579C102.022 66.2557 101.533 66.205 101.106 66.2057C100.687 66.1936 100.296 66.2298 99.9325 66.3144C99.3403 66.4521 98.907 66.6843 98.6325 67.0109C98.366 67.3247 98.298 67.7622 98.4285 68.3232C98.5228 68.7284 98.7116 69.0459 98.995 69.2756C99.276 69.495 99.7176 69.6278 100.32 69.674L101.669 69.7545C103.357 69.8548 104.381 70.6789 104.741 72.2269C104.949 73.1204 104.848 73.9105 104.438 74.5971C104.026 75.2734 103.223 75.7504 102.028 76.0282C101.539 76.1418 101.007 76.2054 100.429 76.2192C99.8602 76.2202 99.2545 76.1584 98.6122 76.034L98.7648 74.7829C99.3734 74.9042 99.908 74.9661 100.369 74.9685C100.839 74.9685 101.298 74.9166 101.745 74.8127ZM112.529 68.8553L112.747 69.7904C113.003 70.8916 112.919 71.8256 112.495 72.5922C112.082 73.3564 111.35 73.8605 110.301 74.1045C109.262 74.3461 108.383 74.2165 107.664 73.7156C106.945 73.2147 106.458 72.4136 106.202 71.3124L105.984 70.3773C105.733 69.2968 105.814 68.3745 106.228 67.6103C106.649 66.8333 107.385 66.3228 108.434 66.0788C109.483 65.8348 110.363 65.9696 111.074 66.4833C111.793 66.9842 112.278 67.7749 112.529 68.8553ZM111.205 69.1634C111.033 68.4257 110.733 67.8878 110.304 67.5495C109.872 67.2009 109.34 67.1002 108.706 67.2476C108.082 67.3925 107.649 67.7178 107.405 68.2235C107.169 68.7164 107.137 69.3317 107.309 70.0693L107.526 71.0043C107.705 71.7732 108.009 72.3267 108.438 72.665C108.878 73.0008 109.409 73.0963 110.033 72.9513C110.666 72.8039 111.101 72.4838 111.337 71.9909C111.573 71.4981 111.601 70.8672 111.422 70.0984L111.205 69.1634ZM120.431 69.1371L119.438 64.8671L115.853 65.7005L117.387 72.2925L116.109 72.5897L114.576 65.9977L113.235 66.3093L112.974 65.1873L114.315 64.8756L114.054 63.7536C113.935 63.2445 113.92 62.7553 114.008 62.2858C114.093 61.806 114.324 61.3855 114.7 61.0243C115.073 60.6527 115.629 60.3811 116.367 60.2096C116.824 60.1033 117.336 60.0445 117.903 60.0331C118.47 60.0218 119.069 60.0795 119.701 60.2064L120.455 63.4479L122.979 62.8608L123.24 63.9828L120.716 64.5699L121.698 68.7932C121.819 69.3126 121.985 69.6517 122.198 69.8105C122.418 69.9564 122.71 69.9871 123.073 69.9025C123.26 69.8591 123.452 69.7872 123.647 69.6869C123.853 69.5842 124.076 69.434 124.314 69.2361L124.935 70.2088C124.405 70.6606 123.802 70.965 123.127 71.1221C122.587 71.2477 122.135 71.2377 121.773 71.092C121.41 70.9463 121.123 70.7009 120.912 70.3559C120.698 70.0005 120.537 69.5942 120.431 69.1371ZM115.328 63.4409L115.592 64.5785L119.177 63.745L118.593 61.236C117.851 61.2005 117.21 61.2455 116.67 61.3711C116.098 61.504 115.697 61.7341 115.467 62.0615C115.236 62.3889 115.19 62.8487 115.328 63.4409ZM134.205 60.2505L134.02 68.4248L132.54 68.7691L129.447 62.8189L129.251 69.5337L127.771 69.878L124.013 62.6205L125.322 62.3161L126.851 65.3608L128.296 68.3924L128.47 61.5841L129.826 61.2688L132.994 67.3328L132.933 63.9631L132.943 60.5441L134.205 60.2505ZM143.511 66.3001C143.033 66.4112 142.623 66.3915 142.281 66.241C141.95 66.0881 141.69 65.8639 141.5 65.5684C141.095 66.1335 140.707 66.5579 140.335 66.8415C139.96 67.1147 139.565 67.2997 139.15 67.3963C138.474 67.5534 137.925 67.4511 137.501 67.0897C137.078 66.7282 136.792 66.2306 136.645 65.5969C136.546 65.1709 136.535 64.7736 136.614 64.4049C136.692 64.0362 136.897 63.7149 137.227 63.4409C137.555 63.1565 138.036 62.9406 138.67 62.7933C138.951 62.728 139.262 62.6776 139.604 62.6418C139.944 62.5957 140.291 62.5587 140.646 62.5309L140.403 61.4868C140.268 60.905 140.046 60.5404 139.738 60.393C139.438 60.2328 139.044 60.2095 138.556 60.323C137.891 60.4777 137.19 60.8322 136.454 61.3867L135.802 60.4212C136.229 60.0919 136.648 59.8194 137.058 59.6036C137.467 59.3879 137.896 59.2281 138.342 59.1242C139.07 58.9551 139.653 58.9453 140.093 59.0949C140.533 59.2444 140.872 59.4997 141.109 59.8607C141.346 60.2216 141.519 60.6359 141.628 61.1034L142.404 64.4384C142.46 64.6773 142.553 64.869 142.686 65.0135C142.815 65.1476 143.02 65.1821 143.301 65.1168L143.472 65.077L143.744 66.2458L143.511 66.3001ZM137.903 65.2878C137.986 65.641 138.135 65.9074 138.352 66.0869C138.569 66.2664 138.833 66.3199 139.145 66.2475C139.415 66.1847 139.709 66.0343 140.026 65.7963C140.34 65.5479 140.701 65.1192 141.106 64.5101L140.878 63.5283C140.145 63.5783 139.508 63.6661 138.968 63.7917C138.49 63.9029 138.17 64.0813 138.008 64.327C137.847 64.5727 137.812 64.893 137.903 65.2878ZM148.055 58.2127C147.588 58.3214 147.15 58.5108 146.742 58.7809C146.344 59.0486 145.95 59.4742 145.56 60.0577L146.814 65.4497L145.537 65.7469L143.742 58.0328L144.958 57.7502L145.248 58.9969C145.657 58.3542 146.055 57.8783 146.443 57.569C146.842 57.2573 147.28 57.0459 147.758 56.9348L148.055 58.2127ZM156.748 62.6634C156.334 63.0007 155.903 63.2652 155.455 63.4571C155.009 63.6593 154.589 63.8063 154.194 63.8981C153.082 64.1566 152.177 64.033 151.479 63.5273C150.791 63.0192 150.32 62.2145 150.063 61.1132L149.846 60.1782C149.597 59.1081 149.668 58.1881 150.058 57.4184C150.459 56.6462 151.158 56.1441 152.155 55.9122C152.685 55.789 153.194 55.7858 153.681 55.9025C154.176 56.0064 154.604 56.2463 154.965 56.6222C155.335 56.9854 155.598 57.5046 155.755 58.1799C155.856 58.6163 155.91 59.1295 155.916 59.7195L151.318 60.7885L151.326 60.8197C151.509 61.6092 151.809 62.1692 152.226 62.4995C152.652 62.8274 153.229 62.9067 153.957 62.7376C154.289 62.6603 154.643 62.5342 155.019 62.3593C155.404 62.182 155.769 61.9603 156.112 61.6943L156.748 62.6634ZM152.416 57.0343C151.814 57.1744 151.403 57.4781 151.183 57.9453C150.971 58.3998 150.932 58.9839 151.065 59.6976L154.556 58.8859C154.543 58.6916 154.518 58.5114 154.479 58.3452C154.344 57.7634 154.078 57.3761 153.683 57.1832C153.296 56.9776 152.874 56.928 152.416 57.0343ZM91.253 98.903L88.788 88.3059L92.0763 87.5413C93.2918 87.2587 94.3127 87.41 95.1388 87.9955C95.9625 88.5705 96.5242 89.5022 96.8238 90.7905L97.364 93.1125C97.666 94.4111 97.5756 95.5054 97.0927 96.3952C96.6073 97.2747 95.7568 97.8557 94.5412 98.1384L91.253 98.903ZM92.3423 88.8264L90.4411 89.2685L92.3152 97.3254L94.2164 96.8833C95.8268 96.5089 96.4085 95.3606 95.9614 93.4386L95.4213 91.1166C94.979 89.2154 93.9527 88.452 92.3423 88.8264ZM106.385 94.908C105.97 95.2453 105.539 95.5099 105.091 95.7017C104.645 95.9039 104.225 96.0509 103.83 96.1427C102.718 96.4012 101.814 96.2776 101.116 95.7719C100.428 95.2638 99.956 94.4591 99.6998 93.3578L99.4823 92.4228C99.2334 91.3527 99.3041 90.4328 99.6946 89.663C100.095 88.8908 100.794 88.3888 101.792 88.1568C102.322 88.0336 102.83 88.0304 103.317 88.1471C103.812 88.251 104.241 88.4909 104.602 88.8669C104.971 89.23 105.234 89.7493 105.391 90.4246C105.493 90.8609 105.546 91.3741 105.552 91.9641L100.955 93.0331L100.962 93.0643C101.146 93.8539 101.446 94.4138 101.862 94.7441C102.289 95.072 102.866 95.1514 103.593 94.9823C103.926 94.905 104.279 94.7788 104.655 94.6039C105.041 94.4266 105.405 94.2049 105.749 93.9389L106.385 94.908ZM102.053 89.2789C101.45 89.419 101.039 89.7227 100.819 90.19C100.607 90.6444 100.568 91.2285 100.701 91.9423L104.192 91.1305C104.18 90.9363 104.154 90.756 104.115 90.5898C103.98 90.008 103.715 89.6207 103.32 89.4279C102.932 89.2223 102.51 89.1726 102.053 89.2789ZM112.565 85.8161L111.632 94.1643L110.432 94.4433L105.879 87.3707L107.204 87.0626L109.371 90.5176L110.698 92.6896L110.914 90.1588L111.303 86.1096L112.565 85.8161ZM121.406 91.4152C120.992 91.7524 120.56 92.017 120.112 92.2088C119.666 92.411 119.246 92.5581 118.851 92.6499C117.74 92.9084 116.835 92.7848 116.137 92.279C115.449 91.7709 114.977 90.9662 114.721 89.865L114.503 88.9299C114.255 87.8598 114.325 86.9399 114.716 86.1701C115.116 85.398 115.816 84.8959 116.813 84.664C117.343 84.5408 117.851 84.5375 118.338 84.6542C118.834 84.7581 119.262 84.9981 119.623 85.374C119.992 85.7372 120.255 86.2564 120.412 86.9317C120.514 87.3681 120.568 87.8812 120.573 88.4712L115.976 89.5403L115.983 89.5714C116.167 90.361 116.467 90.921 116.883 91.2513C117.31 91.5791 117.887 91.6585 118.614 91.4894C118.947 91.4121 119.301 91.286 119.676 91.1111C120.062 90.9337 120.427 90.7121 120.77 90.4461L121.406 91.4152ZM117.074 85.786C116.471 85.9261 116.06 86.2298 115.84 86.6971C115.628 87.1516 115.589 87.7357 115.722 88.4494L119.213 87.6377C119.201 87.4434 119.175 87.2632 119.137 87.0969C119.001 86.5151 118.736 86.1278 118.341 85.935C117.953 85.7294 117.531 85.6797 117.074 85.786ZM123.319 89.4755L121.071 79.8135L122.349 79.5163L124.582 89.1161C124.647 89.3966 124.739 89.5999 124.855 89.726C124.98 89.8393 125.178 89.8646 125.448 89.8018L125.697 89.7438L125.969 90.9126L125.611 90.9959C124.925 91.1554 124.405 91.0847 124.05 90.7839C123.695 90.4831 123.452 90.047 123.319 89.4755ZM132.98 84.6336L133.197 85.5687C133.453 86.6699 133.369 87.6039 132.945 88.3705C132.532 89.1347 131.8 89.6388 130.751 89.8828C129.712 90.1244 128.833 89.9947 128.114 89.4939C127.396 88.993 126.908 88.1919 126.652 87.0907L126.434 86.1556C126.183 85.0751 126.264 84.1528 126.678 83.3886C127.099 82.6116 127.835 82.1011 128.884 81.8571C129.934 81.6131 130.814 81.7479 131.524 82.2616C132.243 82.7625 132.728 83.5531 132.98 84.6336ZM131.655 84.9417C131.483 84.204 131.183 83.6661 130.754 83.3278C130.322 82.9791 129.79 82.8785 129.156 83.0259C128.533 83.1708 128.099 83.4961 127.855 84.0018C127.62 84.4947 127.587 85.11 127.759 85.8476L127.977 86.7826C128.155 87.5514 128.459 88.105 128.888 88.4432C129.328 88.7791 129.859 88.8745 130.483 88.7296C131.117 88.5822 131.551 88.2621 131.787 87.7692C132.023 87.2763 132.051 86.6455 131.873 85.8767L131.655 84.9417ZM139.432 87.8643C138.85 87.9996 138.219 88.0202 137.541 87.9262L138.36 91.4482L137.082 91.7453L134.515 80.7119L135.731 80.4293L135.985 81.5201C136.356 80.9519 136.718 80.5283 137.069 80.2495C137.42 79.9707 137.804 79.783 138.219 79.6864C139.04 79.4955 139.741 79.661 140.323 80.1829C140.914 80.7024 141.342 81.5283 141.605 82.6608L141.816 83.5646C142.067 84.6451 141.992 85.5715 141.591 86.3436C141.201 87.1134 140.481 87.6203 139.432 87.8643ZM138.187 80.9588C137.886 81.0289 137.592 81.1793 137.306 81.41C137.02 81.6407 136.689 82.0518 136.312 82.6433L137.269 86.7574C137.601 86.8224 137.915 86.8535 138.21 86.8506C138.503 86.8373 138.784 86.7993 139.054 86.7364C139.761 86.5722 140.22 86.2408 140.433 85.7424C140.643 85.2335 140.662 84.6103 140.491 83.8727L140.281 82.9688C140.092 82.1584 139.823 81.5913 139.474 81.2672C139.135 80.9408 138.706 80.838 138.187 80.9588ZM150.459 84.6595C150.045 84.9968 149.613 85.2613 149.165 85.4531C148.719 85.6554 148.299 85.8024 147.904 85.8942C146.793 86.1527 145.888 86.0291 145.19 85.5234C144.502 85.0152 144.03 84.2105 143.774 83.1093L143.556 82.1742C143.308 81.1041 143.378 80.1842 143.769 79.4144C144.169 78.6423 144.869 78.1402 145.866 77.9083C146.396 77.7851 146.904 77.7818 147.391 77.8985C147.887 78.0024 148.315 78.2424 148.676 78.6183C149.045 78.9815 149.308 79.5007 149.465 80.176C149.567 80.6124 149.621 81.1255 149.626 81.7156L145.029 82.7846L145.036 82.8157C145.22 83.6053 145.52 84.1653 145.936 84.4956C146.363 84.8234 146.94 84.9028 147.667 84.7337C148 84.6564 148.354 84.5303 148.729 84.3554C149.115 84.178 149.48 83.9564 149.823 83.6904L150.459 84.6595ZM146.127 79.0303C145.524 79.1705 145.113 79.4741 144.893 79.9414C144.681 80.3959 144.642 80.98 144.775 81.6937L148.266 80.882C148.254 80.6877 148.228 80.5075 148.19 80.3412C148.054 79.7594 147.789 79.3721 147.394 79.1793C147.006 78.9737 146.584 78.924 146.127 79.0303ZM155.341 77.0521C154.873 77.1608 154.436 77.3502 154.027 77.6203C153.63 77.888 153.236 78.3136 152.846 78.8971L154.1 84.2891L152.822 84.5863L151.028 76.8722L152.244 76.5896L152.534 77.8363C152.943 77.1936 153.341 76.7177 153.729 76.4084C154.128 76.0967 154.566 75.8853 155.044 75.7742L155.341 77.0521ZM172.565 82.7389C172.025 83.1492 171.415 83.5156 170.734 83.8381C170.064 84.1582 169.365 84.4028 168.638 84.5719C167.256 84.8933 166.011 84.8869 164.904 84.553C163.808 84.2167 162.889 83.609 162.148 82.73C161.407 81.851 160.883 80.7518 160.576 79.4323C160.324 78.3519 160.259 77.3158 160.378 76.3243C160.496 75.3223 160.781 74.4072 161.235 73.579C161.688 72.7508 162.297 72.0506 163.062 71.4785C163.825 70.896 164.72 70.4851 165.749 70.2459C166.705 70.0237 167.61 69.983 168.464 70.1239C169.318 70.2648 170.097 70.5545 170.802 70.993C171.506 71.4315 172.098 72.0002 172.578 72.6989C173.066 73.3849 173.414 74.1746 173.622 75.0681C173.823 75.9304 173.851 76.7342 173.707 77.4796C173.573 78.2225 173.291 78.8466 172.861 79.3518C172.441 79.8546 171.904 80.1821 171.25 80.3343C170.751 80.4502 170.311 80.443 169.93 80.3125C169.56 80.1796 169.276 79.9007 169.079 79.4757C168.748 80.0782 168.394 80.5329 168.016 80.8398C167.649 81.1442 167.257 81.3447 166.842 81.4414C166.353 81.5549 165.916 81.5089 165.528 81.3032C165.149 81.0848 164.844 80.7396 164.614 80.2674C164.381 79.7849 164.238 79.2159 164.184 78.5605L164.109 77.6743C164.023 76.5992 164.191 75.7171 164.611 75.028C165.039 74.3261 165.72 73.8665 166.655 73.6491C167.165 73.5307 167.679 73.5042 168.198 73.5697C168.725 73.6224 169.252 73.7462 169.779 73.9412L170.019 78.0086C170.04 78.573 170.153 78.941 170.358 79.1126C170.57 79.2713 170.821 79.3168 171.112 79.2492C171.476 79.1646 171.781 78.9459 172.027 78.5929C172.284 78.2375 172.452 77.7823 172.531 77.2273C172.608 76.6619 172.566 76.0364 172.407 75.3507C172.177 74.3637 171.753 73.5314 171.136 72.8537C170.516 72.1655 169.763 71.6835 168.877 71.4076C168 71.1188 167.042 71.0952 166.003 71.3368C165.151 71.5349 164.409 71.8772 163.777 72.3635C163.146 72.8498 162.644 73.4483 162.273 74.1589C161.91 74.8566 161.68 75.6329 161.583 76.4877C161.496 77.3401 161.561 78.2287 161.776 79.1533C162.034 80.265 162.464 81.1944 163.065 81.9418C163.674 82.6763 164.426 83.1803 165.322 83.4538C166.231 83.7353 167.252 83.7444 168.384 83.4811C169.028 83.3313 169.654 83.1036 170.262 82.798C170.872 82.5027 171.417 82.1624 171.897 81.7771L172.565 82.7389ZM165.493 78.2561C165.551 78.9763 165.703 79.5105 165.948 79.8587C166.201 80.194 166.525 80.3158 166.92 80.224C167.221 80.1539 167.53 79.9508 167.846 79.6144C168.162 79.2781 168.462 78.754 168.745 78.0419L168.549 74.8679C167.975 74.7058 167.459 74.6778 167.002 74.7841C166.389 74.9267 165.959 75.2236 165.714 75.6749C165.469 76.1263 165.37 76.6913 165.418 77.3699L165.493 78.2561ZM124.641 111.673L123.274 109.395L119.253 110.33L119.031 112.977L117.706 113.285L118.764 101.869L120.041 101.572L126.044 111.347L124.641 111.673ZM119.525 107.048L119.356 109.009L122.582 108.258L121.566 106.573L119.792 103.536L119.525 107.048ZM129.764 103.451C129.473 103.519 129.164 103.673 128.836 103.913C128.507 104.143 128.117 104.54 127.668 105.105L128.962 110.668L127.684 110.965L125.89 103.251L127.105 102.969L127.356 104.044C127.8 103.459 128.214 103.028 128.599 102.753C128.982 102.467 129.381 102.275 129.796 102.179C130.285 102.065 130.716 102.085 131.092 102.239C131.465 102.382 131.777 102.643 132.03 103.023C132.488 102.401 132.918 101.945 133.321 101.655C133.735 101.361 134.16 101.164 134.596 101.062C135.282 100.903 135.86 101.01 136.33 101.382C136.797 101.744 137.128 102.341 137.321 103.172L138.546 108.439L137.268 108.737L136.087 103.656C135.84 102.597 135.333 102.156 134.564 102.335C134.273 102.402 133.959 102.558 133.621 102.801C133.291 103.031 132.901 103.428 132.452 103.992C132.472 104.031 132.488 104.077 132.501 104.129C132.513 104.181 132.525 104.233 132.537 104.285L133.762 109.552L132.484 109.849L131.302 104.769C131.056 103.709 130.543 103.27 129.764 103.451ZM144.351 107.254C143.769 107.389 143.139 107.41 142.46 107.316L143.279 110.838L142.001 111.135L139.435 100.102L140.65 99.819L140.904 100.91C141.276 100.342 141.637 99.918 141.988 99.6392C142.34 99.3604 142.723 99.1727 143.139 99.0761C143.959 98.8852 144.66 99.0507 145.242 99.5726C145.834 100.092 146.261 100.918 146.525 102.05L146.735 102.954C146.986 104.035 146.911 104.961 146.511 105.733C146.12 106.503 145.4 107.01 144.351 107.254ZM143.106 100.349C142.805 100.419 142.511 100.569 142.225 100.8C141.94 101.03 141.608 101.442 141.231 102.033L142.188 106.147C142.521 106.212 142.835 106.243 143.13 106.24C143.422 106.227 143.704 106.189 143.974 106.126C144.68 105.962 145.14 105.631 145.352 105.132C145.562 104.623 145.582 104 145.41 103.262L145.2 102.359C145.011 101.548 144.743 100.981 144.393 100.657C144.055 100.331 143.626 100.228 143.106 100.349ZM149.438 103.936L147.191 94.2736L148.468 93.9764L150.701 103.576C150.767 103.857 150.858 104.06 150.975 104.186C151.1 104.299 151.297 104.325 151.567 104.262L151.817 104.204L152.089 105.373L151.73 105.456C151.044 105.615 150.524 105.545 150.169 105.244C149.815 104.943 149.571 104.507 149.438 103.936ZM153.121 94.9316L151.687 95.265L151.353 93.8312L152.787 93.4979L153.121 94.9316ZM155.276 104.549L153.998 104.847L152.203 97.1325L153.481 96.8354L155.276 104.549Z" fill="#0E3C66"/>
</g>
<defs>
<clipPath id="clip0">
<rect width="197.193" height="112.613" fill="white" transform="matrix(-0.977144 0.212577 0.212577 0.977144 192.686 0)"/>
</clipPath>
</defs>
</svg>
