<svg width="217" height="152" viewBox="0 0 217 152" fill="none" xmlns="http://www.w3.org/2000/svg">
<g clip-path="url(#clip0)">
<path d="M58.7276 98.8187L18.7718 90.3361C14.9328 89.5213 10.9915 92.441 11.677 95.5921L17.2698 121.3C17.9553 124.451 22.7534 125.47 25.9068 123.134L58.7276 98.8187Z" fill="#FFB648"/>
<path d="M53.4837 99.9614C70.3202 121.846 104.156 132.704 139.413 125.035C174.669 117.365 200.936 93.4296 207.159 66.5293C195.984 52.0045 177.325 42.3353 155.732 39.72C135.478 37.2602 113.946 41.2377 95.8763 50.4402C73.7303 61.703 58.0992 80.0138 53.4837 99.9614Z" fill="#FFF2CA"/>
<path d="M90.8906 27.5247L95.876 50.4407C113.911 41.2562 135.438 37.2553 155.732 39.7204L98.455 22.3893C94.5634 21.2112 90.1666 24.1964 90.8906 27.5247Z" fill="#FFB648"/>
<path d="M101.745 74.8127C102.4 74.6605 102.871 74.4031 103.159 74.0404C103.444 73.6674 103.523 73.2055 103.395 72.6549C103.289 72.1978 103.075 71.8424 102.753 71.5887C102.441 71.3326 101.991 71.1854 101.402 71.1472L100.052 71.0667C99.2071 71.0114 98.5419 70.7882 98.0568 70.3973C97.5691 69.996 97.2432 69.4421 97.0789 68.7356C96.9532 68.1954 96.9435 67.6829 97.0498 67.1982C97.1665 66.7112 97.4284 66.2834 97.8355 65.9149C98.253 65.5441 98.8461 65.2693 99.615 65.0905C100.082 64.9818 100.579 64.9266 101.104 64.9249C101.627 64.9128 102.171 64.9671 102.735 65.0877L102.571 66.3579C102.022 66.2557 101.533 66.205 101.106 66.2057C100.687 66.1936 100.296 66.2298 99.9325 66.3144C99.3403 66.4521 98.907 66.6843 98.6325 67.0109C98.366 67.3247 98.298 67.7622 98.4285 68.3232C98.5228 68.7284 98.7116 69.0459 98.995 69.2756C99.276 69.495 99.7176 69.6278 100.32 69.674L101.669 69.7545C103.357 69.8548 104.381 70.6789 104.741 72.2269C104.949 73.1204 104.848 73.9105 104.438 74.5971C104.026 75.2734 103.223 75.7504 102.028 76.0282C101.539 76.1418 101.007 76.2054 100.429 76.2192C99.8602 76.2202 99.2545 76.1584 98.6122 76.034L98.7648 74.7829C99.3734 74.9042 99.908 74.9661 100.369 74.9685C100.839 74.9685 101.298 74.9166 101.745 74.8127ZM112.529 68.8553L112.747 69.7904C113.003 70.8916 112.919 71.8256 112.495 72.5922C112.082 73.3564 111.35 73.8605 110.301 74.1045C109.262 74.3461 108.383 74.2165 107.664 73.7156C106.945 73.2147 106.458 72.4136 106.202 71.3124L105.984 70.3773C105.733 69.2968 105.814 68.3745 106.228 67.6103C106.649 66.8333 107.385 66.3228 108.434 66.0788C109.483 65.8348 110.363 65.9696 111.074 66.4833C111.793 66.9842 112.278 67.7749 112.529 68.8553ZM111.205 69.1634C111.033 68.4257 110.733 67.8878 110.304 67.5495C109.872 67.2009 109.34 67.1002 108.706 67.2476C108.082 67.3925 107.649 67.7178 107.405 68.2235C107.169 68.7164 107.137 69.3317 107.309 70.0693L107.526 71.0043C107.705 71.7732 108.009 72.3267 108.438 72.665C108.878 73.0008 109.409 73.0963 110.033 72.9513C110.666 72.8039 111.101 72.4838 111.337 71.9909C111.573 71.4981 111.601 70.8672 111.422 70.0984L111.205 69.1634ZM120.431 69.1371L119.438 64.8671L115.853 65.7005L117.387 72.2925L116.109 72.5897L114.576 65.9977L113.235 66.3093L112.974 65.1873L114.315 64.8756L114.054 63.7536C113.935 63.2445 113.92 62.7553 114.008 62.2858C114.093 61.806 114.324 61.3855 114.7 61.0243C115.073 60.6527 115.629 60.3811 116.367 60.2096C116.824 60.1033 117.336 60.0445 117.903 60.0331C118.47 60.0218 119.069 60.0795 119.701 60.2064L120.455 63.4479L122.979 62.8608L123.24 63.9828L120.716 64.5699L121.698 68.7932C121.819 69.3126 121.985 69.6517 122.198 69.8105C122.418 69.9564 122.71 69.9871 123.073 69.9025C123.26 69.8591 123.452 69.7872 123.647 69.6869C123.853 69.5842 124.076 69.434 124.314 69.2361L124.935 70.2088C124.405 70.6606 123.802 70.965 123.127 71.1221C122.587 71.2477 122.135 71.2377 121.773 71.092C121.41 70.9463 121.123 70.7009 120.912 70.3559C120.698 70.0005 120.537 69.5942 120.431 69.1371ZM115.328 63.4409L115.592 64.5785L119.177 63.745L118.593 61.236C117.851 61.2005 117.21 61.2455 116.67 61.3711C116.098 61.504 115.697 61.7341 115.467 62.0615C115.236 62.3889 115.19 62.8487 115.328 63.4409ZM134.205 60.2505L134.02 68.4248L132.54 68.7691L129.447 62.8189L129.251 69.5337L127.771 69.878L124.013 62.6205L125.322 62.3161L126.851 65.3608L128.296 68.3924L128.47 61.5841L129.826 61.2688L132.994 67.3328L132.933 63.9631L132.943 60.5441L134.205 60.2505ZM143.511 66.3001C143.033 66.4112 142.623 66.3915 142.281 66.241C141.95 66.0881 141.69 65.8639 141.5 65.5684C141.095 66.1335 140.707 66.5579 140.335 66.8415C139.96 67.1147 139.565 67.2997 139.15 67.3963C138.474 67.5534 137.925 67.4511 137.501 67.0897C137.078 66.7282 136.792 66.2306 136.645 65.5969C136.546 65.1709 136.535 64.7736 136.614 64.4049C136.692 64.0362 136.897 63.7149 137.227 63.4409C137.555 63.1565 138.036 62.9406 138.67 62.7933C138.951 62.728 139.262 62.6776 139.604 62.6418C139.944 62.5957 140.291 62.5587 140.646 62.5309L140.403 61.4868C140.268 60.905 140.046 60.5404 139.738 60.393C139.438 60.2328 139.044 60.2095 138.556 60.323C137.891 60.4777 137.19 60.8322 136.454 61.3867L135.802 60.4212C136.229 60.0919 136.648 59.8194 137.058 59.6036C137.467 59.3879 137.896 59.2281 138.342 59.1242C139.07 58.9551 139.653 58.9453 140.093 59.0949C140.533 59.2444 140.872 59.4997 141.109 59.8607C141.346 60.2216 141.519 60.6359 141.628 61.1034L142.404 64.4384C142.46 64.6773 142.553 64.869 142.686 65.0135C142.815 65.1476 143.02 65.1821 143.301 65.1168L143.472 65.077L143.744 66.2458L143.511 66.3001ZM137.903 65.2878C137.986 65.641 138.135 65.9074 138.352 66.0869C138.569 66.2664 138.833 66.3199 139.145 66.2475C139.415 66.1847 139.709 66.0343 140.026 65.7963C140.34 65.5479 140.701 65.1192 141.106 64.5101L140.878 63.5283C140.145 63.5783 139.508 63.6661 138.968 63.7917C138.49 63.9029 138.17 64.0813 138.008 64.327C137.847 64.5727 137.812 64.893 137.903 65.2878ZM148.055 58.2127C147.588 58.3214 147.15 58.5108 146.742 58.7809C146.344 59.0486 145.95 59.4742 145.56 60.0577L146.814 65.4497L145.537 65.7469L143.742 58.0328L144.958 57.7502L145.248 58.9969C145.657 58.3542 146.055 57.8783 146.443 57.569C146.842 57.2573 147.28 57.0459 147.758 56.9348L148.055 58.2127ZM156.748 62.6634C156.334 63.0007 155.903 63.2652 155.455 63.4571C155.009 63.6593 154.589 63.8063 154.194 63.8981C153.082 64.1566 152.177 64.033 151.479 63.5273C150.791 63.0192 150.32 62.2145 150.063 61.1132L149.846 60.1782C149.597 59.1081 149.668 58.1881 150.058 57.4184C150.459 56.6462 151.158 56.1441 152.155 55.9122C152.685 55.789 153.194 55.7858 153.681 55.9025C154.176 56.0064 154.604 56.2463 154.965 56.6222C155.335 56.9854 155.598 57.5046 155.755 58.1799C155.856 58.6163 155.91 59.1295 155.916 59.7195L151.318 60.7885L151.326 60.8197C151.509 61.6092 151.809 62.1692 152.226 62.4995C152.652 62.8274 153.229 62.9067 153.957 62.7376C154.289 62.6603 154.643 62.5342 155.019 62.3593C155.404 62.182 155.769 61.9603 156.112 61.6943L156.748 62.6634ZM152.416 57.0343C151.814 57.1744 151.403 57.4781 151.183 57.9453C150.971 58.3998 150.932 58.9839 151.065 59.6976L154.556 58.8859C154.543 58.6916 154.518 58.5114 154.479 58.3452C154.344 57.7634 154.078 57.3761 153.683 57.1832C153.296 56.9776 152.874 56.928 152.416 57.0343ZM100.846 95.3418L101.14 96.6041L95.2175 97.9811L92.7525 87.3841L98.5187 86.0433L98.8159 87.3211L94.4056 88.3467L95.1777 91.6661L99.1205 90.7492L99.4178 92.0271L95.475 92.9439L96.2797 96.4036L100.846 95.3418ZM105.374 88.5888C105.083 88.6565 104.757 88.8089 104.396 89.0462C104.045 89.281 103.647 89.6858 103.2 90.2606L104.494 95.8241L103.216 96.1212L101.422 88.4072L102.637 88.1245L102.887 89.1998C103.329 88.6042 103.753 88.1662 104.159 87.8857C104.575 87.6028 104.991 87.413 105.406 87.3164C106.123 87.1497 106.722 87.2514 107.202 87.6216C107.69 87.9789 108.031 88.5732 108.225 89.4043L109.45 94.6717L108.172 94.9689L106.99 89.8885C106.744 88.8288 106.205 88.3956 105.374 88.5888ZM118.515 93.5822C118.692 94.3406 118.521 95.0208 118.004 95.6229C117.498 96.2226 116.704 96.648 115.624 96.8993C115.083 97.0249 114.5 97.0839 113.874 97.0761C113.259 97.066 112.654 96.9602 112.059 96.759L112.264 95.6601C112.851 95.8302 113.396 95.9169 113.901 95.92C114.418 95.9311 114.906 95.8836 115.363 95.7773C116.069 95.613 116.588 95.3719 116.919 95.0539C117.25 94.736 117.371 94.3848 117.282 94.0004C117.217 93.7199 117.072 93.5234 116.849 93.4111C116.628 93.3091 116.31 93.3064 115.895 93.4031L114.102 93.8198C113.427 93.9769 112.901 93.9294 112.525 93.6774C112.149 93.4253 111.916 93.1071 111.827 92.7227C111.764 92.4526 111.765 92.1732 111.829 91.8845C111.891 91.5854 112.006 91.2794 112.174 90.9665C111.759 90.8329 111.4 90.6044 111.094 90.2811C110.787 89.9475 110.57 89.5105 110.445 88.9703C110.307 88.3781 110.317 87.8556 110.474 87.4028C110.642 86.9476 110.916 86.5718 111.296 86.2753C111.674 85.9685 112.128 85.7535 112.657 85.6303L112.922 85.5687C113.286 85.4841 113.631 85.4588 113.956 85.4926L116.73 84.8476L116.995 85.9852L115.257 86.1428C115.519 86.2791 115.75 86.4718 115.95 86.7209C116.148 86.9596 116.293 87.2763 116.385 87.6711C116.515 88.2321 116.495 88.7351 116.325 89.1799C116.165 89.6222 115.896 89.9969 115.519 90.3037C115.139 90.6001 114.689 90.8088 114.169 90.9296L113.904 90.9912C113.769 91.0226 113.638 91.0476 113.511 91.0662C113.382 91.0744 113.252 91.0826 113.123 91.0908C112.899 91.4933 112.824 91.8556 112.899 92.1777C112.996 92.5933 113.335 92.7334 113.917 92.5981L115.662 92.1922C116.41 92.0183 117.036 92.048 117.539 92.2814C118.043 92.5149 118.368 92.9484 118.515 93.5822ZM113.912 89.8231C114.317 89.7289 114.645 89.5157 114.897 89.1835C115.148 88.8512 115.212 88.4202 115.089 87.8904C114.968 87.3709 114.721 87.0175 114.349 86.8303C113.975 86.6326 113.585 86.5809 113.18 86.6751L112.915 86.7367C112.499 86.8334 112.167 87.053 111.918 87.3956C111.667 87.7278 111.602 88.1536 111.722 88.6731C111.846 89.203 112.093 89.5615 112.466 89.7488C112.838 89.936 113.231 89.9813 113.647 89.8847L113.912 89.8231ZM119.339 82.2533L117.905 82.5867L117.571 81.153L119.005 80.8196L119.339 82.2533ZM121.494 91.8712L120.216 92.1683L118.421 84.4543L119.699 84.1571L121.494 91.8712ZM126.406 83.6981C126.115 83.7658 125.789 83.9182 125.428 84.1555C125.078 84.3903 124.679 84.7951 124.233 85.3699L125.527 90.9334L124.249 91.2305L122.454 83.5165L123.67 83.2338L123.92 84.3091C124.362 83.7135 124.786 83.2755 125.191 82.995C125.607 82.7121 126.023 82.5223 126.439 82.4257C127.156 82.259 127.754 82.3607 128.235 82.7309C128.723 83.0882 129.064 83.6825 129.257 84.5136L130.482 89.781L129.205 90.0781L128.023 84.9978C127.776 83.9381 127.237 83.5049 126.406 83.6981ZM138.641 87.4074C138.227 87.7447 137.796 88.0092 137.348 88.2011C136.902 88.4033 136.482 88.5503 136.087 88.6421C134.975 88.9006 134.07 88.777 133.372 88.2713C132.684 87.7632 132.213 86.9585 131.956 85.8572L131.739 84.9222C131.49 83.8521 131.561 82.9321 131.951 82.1624C132.352 81.3902 133.051 80.8881 134.048 80.6562C134.578 80.533 135.087 80.5298 135.574 80.6465C136.069 80.7504 136.497 80.9903 136.858 81.3663C137.228 81.7294 137.491 82.2486 137.648 82.9239C137.749 83.3603 137.803 83.8735 137.809 84.4635L133.211 85.5325L133.219 85.5637C133.402 86.3533 133.702 86.9132 134.119 87.2435C134.545 87.5714 135.122 87.6507 135.85 87.4816C136.182 87.4043 136.536 87.2782 136.912 87.1033C137.297 86.926 137.662 86.7043 138.005 86.4383L138.641 87.4074ZM134.309 81.7783C133.707 81.9184 133.296 82.2221 133.076 82.6893C132.864 83.1438 132.825 83.7279 132.958 84.4416L136.449 83.6299C136.436 83.4356 136.411 83.2554 136.372 83.0892C136.237 82.5074 135.971 82.1201 135.576 81.9272C135.189 81.7216 134.767 81.672 134.309 81.7783ZM146.494 85.5813C146.08 85.9186 145.649 86.1832 145.201 86.375C144.755 86.5772 144.335 86.7242 143.94 86.816C142.828 87.0745 141.923 86.9509 141.225 86.4452C140.537 85.9371 140.066 85.1324 139.809 84.0311L139.592 83.0961C139.343 82.026 139.414 81.1061 139.804 80.3363C140.205 79.5641 140.904 79.0621 141.901 78.8302C142.431 78.707 142.94 78.7037 143.427 78.8204C143.922 78.9243 144.35 79.1642 144.711 79.5402C145.081 79.9033 145.344 80.4226 145.501 81.0979C145.602 81.5342 145.656 82.0474 145.662 82.6374L141.064 83.7064L141.072 83.7376C141.255 84.5272 141.555 85.0871 141.972 85.4174C142.398 85.7453 142.975 85.8247 143.703 85.6556C144.035 85.5783 144.389 85.4522 144.765 85.2772C145.15 85.0999 145.515 84.8782 145.858 84.6122L146.494 85.5813ZM142.162 79.9522C141.56 80.0923 141.149 80.396 140.929 80.8633C140.717 81.3178 140.678 81.9018 140.811 82.6156L144.302 81.8038C144.289 81.6096 144.264 81.4293 144.225 81.2631C144.09 80.6813 143.824 80.294 143.429 80.1012C143.042 79.8956 142.62 79.8459 142.162 79.9522ZM151.376 77.974C150.909 78.0827 150.471 78.2721 150.063 78.5422C149.665 78.8099 149.271 79.2355 148.881 79.819L150.136 85.211L148.858 85.5082L147.063 77.7941L148.279 77.5115L148.569 78.7582C148.978 78.1155 149.377 77.6395 149.765 77.3303C150.163 77.0186 150.601 76.8072 151.079 76.6961L151.376 77.974ZM168.6 83.6608C168.06 84.0711 167.45 84.4374 166.769 84.76C166.099 85.0801 165.4 85.3247 164.673 85.4938C163.291 85.8151 162.047 85.8088 160.94 85.4749C159.843 85.1385 158.924 84.5309 158.183 83.6519C157.442 82.7729 156.918 81.6737 156.611 80.3542C156.36 79.2737 156.294 78.2377 156.414 77.2461C156.531 76.2442 156.817 75.3291 157.27 74.5009C157.724 73.6726 158.333 72.9725 159.098 72.4003C159.86 71.8178 160.756 71.407 161.784 71.1678C162.74 70.9456 163.645 70.9049 164.499 71.0458C165.353 71.1866 166.133 71.4763 166.837 71.9149C167.541 72.3534 168.134 72.9221 168.614 73.6208C169.102 74.3068 169.45 75.0965 169.658 75.9899C169.858 76.8523 169.886 77.6561 169.742 78.4015C169.608 79.1444 169.326 79.7685 168.896 80.2737C168.477 80.7765 167.94 81.104 167.285 81.2562C166.786 81.3721 166.347 81.3649 165.966 81.2344C165.595 81.1015 165.311 80.8225 165.114 80.3975C164.783 81.0001 164.429 81.4548 164.051 81.7616C163.684 82.0661 163.293 82.2666 162.877 82.3632C162.389 82.4768 161.951 82.4307 161.564 82.2251C161.184 82.0067 160.88 81.6614 160.649 81.1893C160.417 80.7068 160.273 80.1378 160.219 79.4823L160.145 78.5962C160.059 77.5211 160.226 76.6389 160.646 75.9499C161.074 75.248 161.756 74.7884 162.691 74.5709C163.2 74.4525 163.714 74.4261 164.233 74.4916C164.76 74.5443 165.287 74.6681 165.814 74.8631L166.054 78.9305C166.076 79.4949 166.189 79.8629 166.393 80.0344C166.605 80.1932 166.857 80.2387 167.148 80.1711C167.511 80.0865 167.816 79.8677 168.063 79.5148C168.32 79.1594 168.487 78.7042 168.566 78.1492C168.643 77.5838 168.602 76.9583 168.442 76.2726C168.212 75.2856 167.789 74.4533 167.171 73.7755C166.551 73.0874 165.798 72.6054 164.913 72.3294C164.035 72.0407 163.077 72.0171 162.038 72.2587C161.186 72.4568 160.444 72.799 159.813 73.2854C159.181 73.7717 158.68 74.3702 158.308 75.0807C157.945 75.7785 157.715 76.5548 157.618 77.4096C157.532 78.262 157.596 79.1505 157.811 80.0752C158.07 81.1868 158.499 82.1163 159.1 82.8636C159.709 83.5981 160.462 84.1022 161.358 84.3757C162.266 84.6572 163.287 84.6663 164.419 84.4029C165.064 84.2532 165.69 84.0255 166.297 83.7198C166.908 83.4246 167.453 83.0843 167.933 82.6989L168.6 83.6608ZM161.528 79.1779C161.586 79.8982 161.738 80.4324 161.983 80.7805C162.237 81.1159 162.561 81.2377 162.955 81.1459C163.257 81.0758 163.565 80.8726 163.881 80.5363C164.197 80.2 164.497 79.6758 164.781 78.9638L164.584 75.7898C164.01 75.6276 163.494 75.5997 163.037 75.706C162.424 75.8486 161.995 76.1455 161.749 76.5968C161.504 77.0481 161.405 77.6131 161.454 78.2918L161.528 79.1779ZM124.641 111.673L123.274 109.395L119.253 110.33L119.031 112.977L117.706 113.285L118.764 101.869L120.041 101.572L126.044 111.347L124.641 111.673ZM119.525 107.048L119.356 109.009L122.582 108.258L121.566 106.573L119.792 103.536L119.525 107.048ZM129.764 103.451C129.473 103.519 129.164 103.673 128.836 103.913C128.507 104.143 128.117 104.54 127.668 105.105L128.962 110.668L127.684 110.965L125.89 103.251L127.105 102.969L127.356 104.044C127.8 103.459 128.214 103.028 128.599 102.753C128.982 102.467 129.381 102.275 129.796 102.179C130.285 102.065 130.716 102.085 131.092 102.239C131.465 102.382 131.777 102.643 132.03 103.023C132.488 102.401 132.918 101.945 133.321 101.655C133.735 101.361 134.16 101.164 134.596 101.062C135.282 100.903 135.86 101.01 136.33 101.382C136.797 101.744 137.128 102.341 137.321 103.172L138.546 108.439L137.268 108.737L136.087 103.656C135.84 102.597 135.333 102.156 134.564 102.335C134.273 102.402 133.959 102.558 133.621 102.801C133.291 103.031 132.901 103.428 132.452 103.992C132.472 104.031 132.488 104.077 132.501 104.129C132.513 104.181 132.525 104.233 132.537 104.285L133.762 109.552L132.484 109.849L131.302 104.769C131.056 103.709 130.543 103.27 129.764 103.451ZM144.351 107.254C143.769 107.389 143.139 107.41 142.46 107.316L143.279 110.838L142.001 111.135L139.435 100.102L140.65 99.819L140.904 100.91C141.276 100.342 141.637 99.918 141.988 99.6392C142.34 99.3604 142.723 99.1727 143.139 99.0761C143.959 98.8852 144.66 99.0507 145.242 99.5726C145.834 100.092 146.261 100.918 146.525 102.05L146.735 102.954C146.986 104.035 146.911 104.961 146.511 105.733C146.12 106.503 145.4 107.01 144.351 107.254ZM143.106 100.349C142.805 100.419 142.511 100.569 142.225 100.8C141.94 101.03 141.608 101.442 141.231 102.033L142.188 106.147C142.521 106.212 142.835 106.243 143.13 106.24C143.422 106.227 143.704 106.189 143.974 106.126C144.68 105.962 145.14 105.631 145.352 105.132C145.562 104.623 145.582 104 145.41 103.262L145.2 102.359C145.011 101.548 144.743 100.981 144.393 100.657C144.055 100.331 143.626 100.228 143.106 100.349ZM149.438 103.936L147.191 94.2736L148.468 93.9764L150.701 103.576C150.767 103.857 150.858 104.06 150.975 104.186C151.1 104.299 151.297 104.325 151.567 104.262L151.817 104.204L152.089 105.373L151.73 105.456C151.044 105.615 150.524 105.545 150.169 105.244C149.815 104.943 149.571 104.507 149.438 103.936ZM153.121 94.9316L151.687 95.265L151.353 93.8312L152.787 93.4979L153.121 94.9316ZM155.276 104.549L153.998 104.847L152.203 97.1325L153.481 96.8354L155.276 104.549Z" fill="#0E3C66"/>
</g>
<defs>
<clipPath id="clip0">
<rect width="197.193" height="112.613" fill="white" transform="matrix(-0.977144 0.212577 0.212577 0.977144 192.686 0)"/>
</clipPath>
</defs>
</svg>
