<svg width="217" height="152" viewBox="0 0 217 152" fill="none" xmlns="http://www.w3.org/2000/svg">
<g clip-path="url(#clip0_402_28)">
<path d="M58.7275 98.8188L18.7716 90.3361C14.9327 89.5213 10.9914 92.441 11.6769 95.5922L17.2696 121.3C17.9552 124.451 22.7532 125.47 25.9067 123.134L58.7275 98.8188Z" fill="#FFB648"/>
<path d="M53.4837 99.9614C70.3202 121.846 104.156 132.705 139.413 125.035C174.669 117.365 200.936 93.4296 207.159 66.5293C195.984 52.0046 177.325 42.3353 155.732 39.72C135.478 37.2602 113.946 41.2377 95.8763 50.4403C73.7303 61.703 58.0992 80.0138 53.4837 99.9614Z" fill="#FFF2CA"/>
<path d="M90.8906 27.5248L95.876 50.4407C113.911 41.2562 135.438 37.2554 155.732 39.7204L98.455 22.3893C94.5634 21.2112 90.1665 24.1965 90.8906 27.5248Z" fill="#FFB648"/>
<path d="M101.745 74.8128C102.4 74.6606 102.871 74.4031 103.159 74.0405C103.444 73.6674 103.523 73.2056 103.395 72.655C103.289 72.1978 103.075 71.8424 102.753 71.5887C102.441 71.3326 101.991 71.1855 101.402 71.1473L100.052 71.0668C99.2071 71.0114 98.5419 70.7883 98.0568 70.3974C97.5691 69.996 97.2432 69.4421 97.0789 68.7357C96.9532 68.1954 96.9435 67.683 97.0498 67.1983C97.1665 66.7112 97.4284 66.2834 97.8355 65.915C98.253 65.5441 98.8461 65.2693 99.615 65.0905C100.082 64.9818 100.579 64.9266 101.104 64.925C101.627 64.9129 102.171 64.9671 102.735 65.0877L102.571 66.358C102.022 66.2558 101.533 66.205 101.106 66.2057C100.687 66.1936 100.296 66.2299 99.9325 66.3144C99.3403 66.4521 98.907 66.6843 98.6325 67.011C98.366 67.3248 98.298 67.7622 98.4285 68.3233C98.5228 68.7284 98.7116 69.0459 98.995 69.2757C99.276 69.4951 99.7176 69.6279 100.32 69.674L101.669 69.7545C103.357 69.8548 104.381 70.679 104.741 72.227C104.949 73.1205 104.848 73.9105 104.438 74.5972C104.026 75.2734 103.223 75.7505 102.028 76.0283C101.539 76.1419 101.007 76.2055 100.429 76.2193C99.8602 76.2202 99.2545 76.1585 98.6122 76.034L98.7648 74.783C99.3734 74.9043 99.908 74.9661 100.369 74.9686C100.839 74.9686 101.298 74.9166 101.745 74.8128ZM112.529 68.8554L112.747 69.7904C113.003 70.8917 112.919 71.8256 112.495 72.5923C112.082 73.3565 111.35 73.8606 110.301 74.1046C109.262 74.3462 108.383 74.2165 107.664 73.7156C106.945 73.2148 106.458 72.4137 106.202 71.3124L105.984 70.3774C105.733 69.2969 105.814 68.3746 106.228 67.6104C106.649 66.8333 107.385 66.3228 108.434 66.0788C109.483 65.8348 110.363 65.9697 111.074 66.4834C111.793 66.9842 112.278 67.7749 112.529 68.8554ZM111.205 69.1634C111.033 68.4258 110.733 67.8878 110.304 67.5496C109.872 67.2009 109.34 67.1003 108.706 67.2476C108.082 67.3926 107.649 67.7179 107.405 68.2236C107.169 68.7165 107.137 69.3317 107.309 70.0694L107.526 71.0044C107.705 71.7732 108.009 72.3268 108.438 72.665C108.878 73.0009 109.409 73.0963 110.033 72.9514C110.666 72.804 111.101 72.4839 111.337 71.991C111.573 71.4981 111.601 70.8673 111.422 70.0985L111.205 69.1634ZM120.431 69.1371L119.438 64.8671L115.853 65.7006L117.387 72.2926L116.109 72.5898L114.576 65.9977L113.235 66.3094L112.974 65.1873L114.315 64.8757L114.054 63.7537C113.935 63.2446 113.92 62.7553 114.008 62.2859C114.093 61.806 114.324 61.3855 114.7 61.0243C115.073 60.6527 115.629 60.3812 116.367 60.2096C116.824 60.1033 117.336 60.0445 117.903 60.0332C118.47 60.0218 119.069 60.0796 119.701 60.2065L120.455 63.4479L122.979 62.8609L123.24 63.9829L120.716 64.57L121.698 68.7932C121.819 69.3127 121.985 69.6518 122.198 69.8105C122.418 69.9565 122.71 69.9872 123.073 69.9026C123.26 69.8591 123.452 69.7872 123.647 69.687C123.853 69.5843 124.076 69.434 124.314 69.2361L124.935 70.2089C124.405 70.6607 123.802 70.9651 123.127 71.1221C122.587 71.2478 122.135 71.2377 121.773 71.092C121.41 70.9463 121.123 70.701 120.912 70.3559C120.698 70.0005 120.537 69.5943 120.431 69.1371ZM115.328 63.4409L115.592 64.5785L119.177 63.7451L118.593 61.2361C117.851 61.2005 117.21 61.2456 116.67 61.3712C116.098 61.5041 115.697 61.7342 115.467 62.0616C115.236 62.3889 115.19 62.8487 115.328 63.4409ZM134.205 60.2506L134.02 68.4249L132.54 68.7691L129.447 62.8189L129.251 69.5338L127.771 69.878L124.013 62.6206L125.322 62.3162L126.851 65.3609L128.296 68.3925L128.47 61.5842L129.826 61.2689L132.994 67.3329L132.933 63.9632L132.943 60.5441L134.205 60.2506ZM143.511 66.3002C143.033 66.4113 142.623 66.3916 142.281 66.2411C141.95 66.0881 141.69 65.8639 141.5 65.5684C141.095 66.1335 140.707 66.5579 140.335 66.8416C139.96 67.1148 139.565 67.2998 139.15 67.3964C138.474 67.5534 137.925 67.4512 137.501 67.0897C137.078 66.7283 136.792 66.2307 136.645 65.5969C136.546 65.171 136.535 64.7736 136.614 64.405C136.692 64.0363 136.897 63.7149 137.227 63.4409C137.555 63.1566 138.036 62.9407 138.67 62.7933C138.951 62.7281 139.262 62.6776 139.604 62.6419C139.944 62.5957 140.291 62.5588 140.646 62.531L140.403 61.4869C140.268 60.9051 140.046 60.5405 139.738 60.3931C139.438 60.2329 139.044 60.2096 138.556 60.3231C137.891 60.4777 137.19 60.8323 136.454 61.3867L135.802 60.4213C136.229 60.092 136.648 59.8194 137.058 59.6037C137.467 59.3879 137.896 59.2281 138.342 59.1242C139.07 58.9551 139.653 58.9453 140.093 59.0949C140.533 59.2445 140.872 59.4998 141.109 59.8607C141.346 60.2217 141.519 60.6359 141.628 61.1035L142.404 64.4384C142.46 64.6774 142.553 64.8691 142.686 65.0136C142.815 65.1477 143.02 65.1821 143.301 65.1169L143.472 65.077L143.744 66.2458L143.511 66.3002ZM137.903 65.2878C137.986 65.6411 138.135 65.9074 138.352 66.087C138.569 66.2665 138.833 66.32 139.145 66.2475C139.415 66.1847 139.709 66.0343 140.026 65.7963C140.34 65.548 140.701 65.1192 141.106 64.5102L140.878 63.5284C140.145 63.5784 139.508 63.6662 138.968 63.7918C138.49 63.9029 138.17 64.0813 138.008 64.3271C137.847 64.5728 137.812 64.893 137.903 65.2878ZM148.055 58.2127C147.588 58.3215 147.15 58.5109 146.742 58.781C146.344 59.0487 145.95 59.4743 145.56 60.0577L146.814 65.4498L145.537 65.7469L143.742 58.0329L144.958 57.7502L145.248 58.997C145.657 58.3543 146.055 57.8783 146.443 57.5691C146.842 57.2574 147.28 57.046 147.758 56.9349L148.055 58.2127ZM156.748 62.6635C156.334 63.0007 155.903 63.2653 155.455 63.4571C155.009 63.6593 154.589 63.8063 154.194 63.8981C153.082 64.1566 152.177 64.033 151.479 63.5273C150.791 63.0192 150.32 62.2145 150.063 61.1133L149.846 60.1782C149.597 59.1081 149.668 58.1882 150.058 57.4184C150.459 56.6462 151.158 56.1442 152.155 55.9123C152.685 55.7891 153.194 55.7858 153.681 55.9025C154.176 56.0064 154.604 56.2464 154.965 56.6223C155.335 56.9855 155.598 57.5047 155.755 58.18C155.856 58.6163 155.91 59.1295 155.916 59.7195L151.318 60.7886L151.326 60.8197C151.509 61.6093 151.809 62.1692 152.226 62.4995C152.652 62.8274 153.229 62.9068 153.957 62.7377C154.289 62.6604 154.643 62.5343 155.019 62.3593C155.404 62.182 155.769 61.9603 156.112 61.6943L156.748 62.6635ZM152.416 57.0343C151.814 57.1744 151.403 57.4781 151.183 57.9454C150.971 58.3999 150.932 58.984 151.065 59.6977L154.556 58.8859C154.543 58.6917 154.518 58.5115 154.479 58.3452C154.344 57.7634 154.078 57.3761 153.683 57.1833C153.296 56.9777 152.874 56.928 152.416 57.0343ZM100.846 95.3419L101.14 96.6042L95.2175 97.9812L92.7525 87.3841L98.5187 86.0433L98.8159 87.3212L94.4056 88.3467L95.1777 91.6661L99.1205 90.7493L99.4178 92.0272L95.475 92.944L96.2797 96.4036L100.846 95.3419ZM105.374 88.5889C105.083 88.6565 104.757 88.809 104.396 89.0462C104.045 89.2811 103.647 89.6859 103.2 90.2607L104.494 95.8241L103.216 96.1213L101.422 88.4072L102.637 88.1246L102.887 89.1999C103.329 88.6043 103.753 88.1663 104.159 87.8858C104.575 87.6029 104.991 87.4131 105.406 87.3165C106.123 87.1498 106.722 87.2515 107.202 87.6216C107.69 87.979 108.031 88.5733 108.225 89.4044L109.45 94.6718L108.172 94.9689L106.99 89.8886C106.744 88.8288 106.205 88.3956 105.374 88.5889ZM118.515 93.5822C118.692 94.3407 118.521 95.0209 118.004 95.623C117.498 96.2227 116.704 96.6481 115.624 96.8994C115.083 97.025 114.5 97.0839 113.874 97.0762C113.259 97.066 112.654 96.9603 112.059 96.759L112.264 95.6602C112.851 95.8303 113.396 95.9169 113.901 95.9201C114.418 95.9312 114.906 95.8836 115.363 95.7773C116.069 95.613 116.588 95.3719 116.919 95.054C117.25 94.736 117.371 94.3848 117.282 94.0004C117.217 93.7199 117.072 93.5235 116.849 93.4111C116.628 93.3092 116.31 93.3065 115.895 93.4031L114.102 93.8199C113.427 93.9769 112.901 93.9294 112.525 93.6774C112.149 93.4254 111.916 93.1072 111.827 92.7228C111.764 92.4527 111.765 92.1733 111.829 91.8845C111.891 91.5854 112.006 91.2794 112.174 90.9665C111.759 90.8329 111.4 90.6045 111.094 90.2812C110.787 89.9475 110.57 89.5106 110.445 88.9703C110.307 88.3781 110.317 87.8556 110.474 87.4029C110.642 86.9477 110.916 86.5719 111.296 86.2754C111.674 85.9686 112.128 85.7535 112.657 85.6303L112.922 85.5687C113.286 85.4842 113.631 85.4588 113.956 85.4927L116.73 84.8476L116.995 85.9852L115.257 86.1429C115.519 86.2791 115.75 86.4718 115.95 86.7209C116.148 86.9596 116.293 87.2764 116.385 87.6712C116.515 88.2322 116.495 88.7351 116.325 89.1799C116.165 89.6223 115.896 89.9969 115.519 90.3038C115.139 90.6002 114.689 90.8088 114.169 90.9296L113.904 90.9912C113.769 91.0226 113.638 91.0476 113.511 91.0662C113.382 91.0744 113.252 91.0827 113.123 91.0909C112.899 91.4934 112.824 91.8557 112.899 92.1777C112.996 92.5933 113.335 92.7335 113.917 92.5982L115.662 92.1923C116.41 92.0184 117.036 92.0481 117.539 92.2815C118.043 92.5149 118.368 92.9485 118.515 93.5822ZM113.912 89.8232C114.317 89.7289 114.645 89.5157 114.897 89.1835C115.148 88.8513 115.212 88.4203 115.089 87.8904C114.968 87.371 114.721 87.0176 114.349 86.8303C113.975 86.6327 113.585 86.581 113.18 86.6752L112.915 86.7368C112.499 86.8334 112.167 87.0531 111.918 87.3956C111.667 87.7279 111.602 88.1537 111.722 88.6732C111.846 89.203 112.093 89.5616 112.466 89.7488C112.838 89.9361 113.231 89.9814 113.647 89.8848L113.912 89.8232ZM119.339 82.2534L117.905 82.5868L117.571 81.1531L119.005 80.8197L119.339 82.2534ZM121.494 91.8712L120.216 92.1684L118.421 84.4543L119.699 84.1572L121.494 91.8712ZM126.406 83.6982C126.115 83.7658 125.789 83.9183 125.428 84.1555C125.078 84.3904 124.679 84.7952 124.233 85.37L125.527 90.9334L124.249 91.2306L122.454 83.5165L123.67 83.2339L123.92 84.3092C124.362 83.7136 124.786 83.2756 125.191 82.9951C125.607 82.7122 126.023 82.5224 126.439 82.4257C127.156 82.259 127.754 82.3608 128.235 82.7309C128.723 83.0883 129.064 83.6825 129.257 84.5137L130.482 89.7811L129.205 90.0782L128.023 84.9978C127.776 83.9381 127.237 83.5049 126.406 83.6982ZM138.641 87.4075C138.227 87.7447 137.796 88.0093 137.348 88.2011C136.902 88.4033 136.482 88.5504 136.087 88.6422C134.975 88.9007 134.07 88.777 133.372 88.2713C132.684 87.7632 132.213 86.9585 131.956 85.8573L131.739 84.9222C131.49 83.8521 131.561 82.9322 131.951 82.1624C132.352 81.3903 133.051 80.8882 134.048 80.6563C134.578 80.5331 135.087 80.5298 135.574 80.6465C136.069 80.7504 136.497 80.9904 136.858 81.3663C137.228 81.7295 137.491 82.2487 137.648 82.924C137.749 83.3603 137.803 83.8735 137.809 84.4635L133.211 85.5326L133.219 85.5637C133.402 86.3533 133.702 86.9133 134.119 87.2435C134.545 87.5714 135.122 87.6508 135.85 87.4817C136.182 87.4044 136.536 87.2783 136.912 87.1034C137.297 86.926 137.662 86.7044 138.005 86.4383L138.641 87.4075ZM134.309 81.7783C133.707 81.9184 133.296 82.2221 133.076 82.6894C132.864 83.1439 132.825 83.728 132.958 84.4417L136.449 83.63C136.436 83.4357 136.411 83.2555 136.372 83.0892C136.237 82.5074 135.971 82.1201 135.576 81.9273C135.189 81.7217 134.767 81.672 134.309 81.7783ZM146.494 85.5814C146.08 85.9187 145.649 86.1832 145.201 86.3751C144.755 86.5773 144.335 86.7243 143.94 86.8161C142.828 87.0746 141.923 86.951 141.225 86.4453C140.537 85.9372 140.066 85.1325 139.809 84.0312L139.592 83.0962C139.343 82.0261 139.414 81.1061 139.804 80.3364C140.205 79.5642 140.904 79.0621 141.901 78.8302C142.431 78.707 142.94 78.7038 143.427 78.8205C143.922 78.9244 144.35 79.1643 144.711 79.5403C145.081 79.9034 145.344 80.4226 145.501 81.0979C145.602 81.5343 145.656 82.0475 145.662 82.6375L141.064 83.7065L141.072 83.7377C141.255 84.5273 141.555 85.0872 141.972 85.4175C142.398 85.7454 142.975 85.8248 143.703 85.6556C144.035 85.5783 144.389 85.4522 144.765 85.2773C145.15 85.1 145.515 84.8783 145.858 84.6123L146.494 85.5814ZM142.162 79.9523C141.56 80.0924 141.149 80.3961 140.929 80.8634C140.717 81.3178 140.678 81.9019 140.811 82.6156L144.302 81.8039C144.289 81.6096 144.264 81.4294 144.225 81.2632C144.09 80.6814 143.824 80.2941 143.429 80.1013C143.042 79.8956 142.62 79.846 142.162 79.9523ZM151.376 77.974C150.909 78.0827 150.471 78.2722 150.063 78.5423C149.665 78.81 149.271 79.2356 148.881 79.819L150.136 85.2111L148.858 85.5082L147.063 77.7942L148.279 77.5115L148.569 78.7582C148.978 78.1156 149.377 77.6396 149.765 77.3303C150.163 77.0187 150.601 76.8073 151.079 76.6961L151.376 77.974ZM168.6 83.6609C168.06 84.0711 167.45 84.4375 166.769 84.76C166.099 85.0802 165.4 85.3248 164.673 85.4939C163.291 85.8152 162.047 85.8089 160.94 85.4749C159.843 85.1386 158.924 84.5309 158.183 83.6519C157.442 82.7729 156.918 81.6737 156.611 80.3543C156.36 79.2738 156.294 78.2378 156.414 77.2462C156.531 76.2442 156.817 75.3291 157.27 74.5009C157.724 73.6727 158.333 72.9725 159.098 72.4004C159.86 71.8179 160.756 71.4071 161.784 71.1679C162.74 70.9456 163.645 70.9049 164.499 71.0458C165.353 71.1867 166.133 71.4764 166.837 71.9149C167.541 72.3535 168.134 72.9221 168.614 73.6209C169.102 74.3068 169.45 75.0965 169.658 75.99C169.858 76.8523 169.886 77.6562 169.742 78.4015C169.608 79.1445 169.326 79.7685 168.896 80.2737C168.477 80.7765 167.94 81.104 167.285 81.2562C166.786 81.3722 166.347 81.3649 165.966 81.2344C165.595 81.1015 165.311 80.8226 165.114 80.3976C164.783 81.0002 164.429 81.4549 164.051 81.7617C163.684 82.0661 163.293 82.2667 162.877 82.3633C162.389 82.4768 161.951 82.4308 161.564 82.2252C161.184 82.0068 160.88 81.6615 160.649 81.1894C160.417 80.7069 160.273 80.1379 160.219 79.4824L160.145 78.5963C160.059 77.5211 160.226 76.639 160.646 75.9499C161.074 75.2481 161.756 74.7884 162.691 74.571C163.2 74.4526 163.714 74.4262 164.233 74.4917C164.76 74.5443 165.287 74.6682 165.814 74.8632L166.054 78.9306C166.076 79.495 166.189 79.8629 166.393 80.0345C166.605 80.1932 166.857 80.2388 167.148 80.1711C167.511 80.0866 167.816 79.8678 168.063 79.5148C168.32 79.1594 168.487 78.7042 168.566 78.1493C168.643 77.5839 168.602 76.9584 168.442 76.2727C168.212 75.2857 167.789 74.4533 167.171 73.7756C166.551 73.0875 165.798 72.6054 164.913 72.3295C164.035 72.0408 163.077 72.0172 162.038 72.2588C161.186 72.4569 160.444 72.7991 159.813 73.2854C159.181 73.7718 158.68 74.3702 158.308 75.0808C157.945 75.7786 157.715 76.5549 157.618 77.4097C157.532 78.2621 157.596 79.1506 157.811 80.0752C158.07 81.1869 158.499 82.1164 159.1 82.8637C159.709 83.5982 160.462 84.1022 161.358 84.3758C162.266 84.6572 163.287 84.6663 164.419 84.403C165.064 84.2532 165.69 84.0255 166.297 83.7199C166.908 83.4247 167.453 83.0844 167.933 82.699L168.6 83.6609ZM161.528 79.178C161.586 79.8982 161.738 80.4324 161.983 80.7806C162.237 81.116 162.561 81.2377 162.955 81.1459C163.257 81.0759 163.565 80.8727 163.881 80.5364C164.197 80.2001 164.497 79.6759 164.781 78.9639L164.584 75.7898C164.01 75.6277 163.494 75.5998 163.037 75.7061C162.424 75.8486 161.995 76.1455 161.749 76.5969C161.504 77.0482 161.405 77.6132 161.454 78.2919L161.528 79.178ZM117.321 113.375L115.954 111.098L111.933 112.033L111.711 114.68L110.386 114.988L111.443 103.572L112.721 103.274L118.724 113.049L117.321 113.375ZM112.204 108.75L112.036 110.711L115.262 109.961L114.246 108.275L112.472 105.238L112.204 108.75ZM122.443 105.153C122.153 105.221 121.843 105.375 121.516 105.615C121.186 105.845 120.797 106.243 120.348 106.807L121.642 112.37L120.364 112.668L118.569 104.953L119.785 104.671L120.035 105.746C120.479 105.161 120.894 104.731 121.279 104.455C121.661 104.169 122.06 103.977 122.476 103.881C122.964 103.767 123.396 103.787 123.771 103.941C124.144 104.084 124.457 104.346 124.709 104.725C125.167 104.104 125.598 103.648 126.001 103.357C126.415 103.064 126.84 102.866 127.276 102.765C127.962 102.605 128.54 102.712 129.009 103.084C129.477 103.447 129.807 104.043 130.001 104.874L131.226 110.142L129.948 110.439L128.766 105.359C128.52 104.299 128.012 103.858 127.243 104.037C126.953 104.105 126.638 104.26 126.3 104.503C125.971 104.733 125.581 105.13 125.132 105.694C125.152 105.734 125.168 105.779 125.18 105.831C125.192 105.883 125.204 105.935 125.216 105.987L126.442 111.254L125.164 111.551L123.982 106.471C123.736 105.411 123.223 104.972 122.443 105.153ZM139.568 108.284C139.09 108.395 138.681 108.375 138.339 108.225C138.008 108.072 137.747 107.848 137.558 107.552C137.153 108.117 136.764 108.542 136.392 108.825C136.018 109.099 135.623 109.284 135.207 109.38C134.532 109.537 133.983 109.435 133.559 109.074C133.135 108.712 132.85 108.215 132.702 107.581C132.603 107.155 132.593 106.757 132.672 106.389C132.75 106.02 132.955 105.699 133.285 105.425C133.613 105.14 134.094 104.925 134.728 104.777C135.008 104.712 135.32 104.661 135.662 104.626C136.002 104.58 136.349 104.543 136.704 104.515L136.461 103.471C136.326 102.889 136.104 102.524 135.796 102.377C135.496 102.217 135.102 102.193 134.613 102.307C133.948 102.462 133.248 102.816 132.512 103.371L131.86 102.405C132.287 102.076 132.706 101.803 133.115 101.588C133.525 101.372 133.953 101.212 134.4 101.108C135.127 100.939 135.711 100.929 136.151 101.079C136.591 101.228 136.93 101.484 137.167 101.845C137.404 102.206 137.577 102.62 137.686 103.087L138.462 106.422C138.517 106.661 138.611 106.853 138.743 106.997C138.873 107.132 139.078 107.166 139.359 107.101L139.53 107.061L139.802 108.23L139.568 108.284ZM133.961 107.272C134.043 107.625 134.193 107.891 134.41 108.071C134.627 108.25 134.891 108.304 135.203 108.231C135.473 108.169 135.767 108.018 136.084 107.78C136.398 107.532 136.758 107.103 137.164 106.494L136.936 105.512C136.203 105.562 135.566 105.65 135.026 105.776C134.548 105.887 134.228 106.065 134.066 106.311C133.904 106.557 133.869 106.877 133.961 107.272ZM145.872 105.57L146.129 106.676L140.768 107.923L140.536 106.925L142.928 100.472L139.391 101.295L139.13 100.173L144.179 98.9985L144.415 100.011L142.007 106.469L145.872 105.57ZM153.118 100.485L153.335 101.42C153.592 102.521 153.508 103.455 153.084 104.221C152.67 104.986 151.939 105.49 150.889 105.734C149.85 105.975 148.971 105.846 148.253 105.345C147.534 104.844 147.046 104.043 146.79 102.942L146.573 102.007C146.321 100.926 146.402 100.004 146.816 99.2395C147.238 98.4625 147.973 97.952 149.022 97.708C150.072 97.464 150.952 97.5988 151.663 98.1125C152.382 98.6134 152.867 99.404 153.118 100.485ZM151.793 100.793C151.622 100.055 151.321 99.517 150.892 99.1787C150.461 98.83 149.928 98.7294 149.294 98.8768C148.671 99.0217 148.237 99.347 147.994 99.8527C147.758 100.346 147.726 100.961 147.897 101.699L148.115 102.634C148.294 103.402 148.598 103.956 149.027 104.294C149.466 104.63 149.998 104.725 150.621 104.58C151.255 104.433 151.69 104.113 151.925 103.62C152.161 103.127 152.19 102.496 152.011 101.728L151.793 100.793ZM158.606 96.7445C158.315 96.8121 157.989 96.9646 157.628 97.2018C157.277 97.4367 156.879 97.8415 156.432 98.4162L157.726 103.98L156.448 104.277L154.654 96.5628L155.869 96.2802L156.119 97.3554C156.561 96.7599 156.985 96.3219 157.391 96.0414C157.807 95.7584 158.223 95.5687 158.638 95.472C159.355 95.3053 159.954 95.4071 160.434 95.7772C160.922 96.1346 161.263 96.7288 161.456 97.56L162.682 102.827L161.404 103.124L160.222 98.0441C159.976 96.9844 159.437 96.5512 158.606 96.7445Z" fill="#0E3C66"/>
</g>
<defs>
<clipPath id="clip0_402_28">
<rect width="197.193" height="112.613" fill="white" transform="matrix(-0.977144 0.212577 0.212577 0.977144 192.686 0)"/>
</clipPath>
</defs>
</svg>
