<svg width="207" height="179" viewBox="0 0 207 179" fill="none" xmlns="http://www.w3.org/2000/svg">
<g clip-path="url(#clip0)">
<path d="M51.2671 93.7023L18.2996 72.1011C15.132 70.0258 10.6449 71.3894 10.2223 74.5559L6.77419 100.389C6.35154 103.556 10.3105 106.15 13.9006 105.059L51.2671 93.7023Z" fill="#73D1F9"/>
<path d="M46.1985 92.9658C54.0698 119.101 80.7793 140.812 114.852 145.775C148.925 150.738 180.302 137.487 194.716 114.598C189.491 97.2523 175.973 81.8549 157.509 72.0127C140.192 62.7744 119.615 59.0861 100.419 61.4461C76.897 64.324 56.8879 75.9937 46.1985 92.9658Z" fill="#D0F1FF"/>
<path d="M100.419 61.4461C113.167 59.8787 126.528 60.9792 139.169 64.613L128.199 146.805C89.0438 146.456 55.2927 123.162 46.1986 92.9655C56.8876 75.9936 76.897 64.324 100.419 61.4461Z" fill="#D0F1FF"/>
<path d="M103.492 38.4186L100.418 61.4464C119.578 59.0911 140.158 62.7563 157.509 72.0129L111.95 36.2371C108.855 33.8058 103.938 35.074 103.492 38.4186Z" fill="#73D1F9"/>
</g>
<defs>
<clipPath id="clip0">
<rect width="188.184" height="152.48" fill="white" transform="matrix(-0.989558 -0.144135 -0.1323 0.99121 206.392 27.1239)"/>
</clipPath>
</defs>
</svg>
