<svg width="201" height="138" viewBox="0 0 201 138" fill="none" xmlns="http://www.w3.org/2000/svg">
<g clip-path="url(#clip0)">
<path d="M48.4434 73.8781L15.476 52.2768C12.3084 50.2016 7.8213 51.5651 7.39865 54.7317L3.95059 80.5651C3.52794 83.7316 7.48685 86.3254 11.077 85.2344L48.4434 73.8781Z" fill="#73D1F9"/>
<path d="M43.3749 73.1416C51.2462 99.2764 77.9557 120.988 112.029 125.951C146.102 130.914 177.479 117.662 191.893 94.7741C186.668 77.428 173.149 62.0307 154.685 52.1884C137.368 42.9502 116.792 39.2618 97.5953 41.6219C74.0734 44.4998 54.0643 56.1695 43.3749 73.1416Z" fill="#D0F1FF"/>
<path d="M100.668 18.5944L97.5948 41.6222C116.754 39.2669 137.334 42.932 154.685 52.1887L109.126 16.4128C106.031 13.9816 101.115 15.2498 100.668 18.5944Z" fill="#73D1F9"/>
<path d="M85.1696 69.6425L81.2589 69.0729L80.6535 73.6087L79.276 73.408L80.7155 62.6237L86.4787 63.4631L86.3051 64.7636L81.9194 64.1248L81.4325 67.7724L85.3432 68.342L85.1696 69.6425ZM91.7958 68.3927C91.3208 68.3235 90.8451 68.3404 90.3686 68.4435C89.9027 68.5481 89.3847 68.8014 88.8145 69.2034L88.0821 74.6907L86.7838 74.5016L87.8316 66.6512L89.0666 66.8311L88.8973 68.0998C89.5061 67.6496 90.0464 67.351 90.5179 67.2041C91 67.0588 91.4838 67.0215 91.9694 67.0922L91.7958 68.3927ZM99.3925 71.8435L99.2654 72.7951C99.1159 73.9158 98.7078 74.7563 98.0411 75.3167C97.3851 75.8787 96.524 76.082 95.4579 75.9267C94.4024 75.7729 93.6274 75.3313 93.1329 74.6018C92.6385 73.8723 92.466 72.9472 92.6156 71.8265L92.7426 70.8749C92.8894 69.7753 93.2908 68.9446 93.9469 68.3826C94.6149 67.8117 95.482 67.6038 96.5481 67.7591C97.6141 67.9144 98.3884 68.3613 98.8709 69.0999C99.3654 69.8294 99.5392 70.7439 99.3925 71.8435ZM98.0467 71.6475C98.1468 70.8968 98.0563 70.2854 97.775 69.8133C97.4951 69.3306 97.0332 69.0424 96.3893 68.9486C95.756 68.8563 95.2362 69.0016 94.83 69.3843C94.4358 69.7581 94.1886 70.3203 94.0884 71.0709L93.9614 72.0225C93.857 72.8049 93.9454 73.4321 94.2268 73.9043C94.5186 74.3779 94.9812 74.6609 95.6145 74.7531C96.2584 74.8469 96.7775 74.7069 97.1717 74.3332C97.5659 73.9595 97.8152 73.3814 97.9196 72.599L98.0467 71.6475ZM105.838 70.3571C105.542 70.3141 105.184 70.3373 104.763 70.4269C104.353 70.5181 103.837 70.7502 103.217 71.1234L102.462 76.7852L101.163 76.5961L102.211 68.7457L103.446 68.9256L103.3 70.0198C103.923 69.6255 104.473 69.3716 104.951 69.258C105.44 69.1459 105.895 69.1206 106.317 69.1821C107.046 69.2882 107.569 69.6015 107.887 70.122C108.216 70.6335 108.325 71.3122 108.212 72.1581L107.497 77.5185L106.198 77.3294L106.888 72.1593C107.032 71.0808 106.682 70.4801 105.838 70.3571ZM114.553 78.2553C113.923 78.4653 113.275 78.5218 112.61 78.425C112.04 78.342 111.607 78.1603 111.311 77.88C111.025 77.6013 110.84 77.2564 110.755 76.8452C110.68 76.4355 110.675 75.9928 110.738 75.517L111.31 71.235L109.948 71.0367L110.101 69.8948L111.462 70.0931L111.754 67.9045L113.053 68.0937L112.76 70.2822L115.325 70.6558L115.173 71.7977L112.608 71.4241L112.043 75.6586C111.969 76.2084 112.008 76.602 112.16 76.8396C112.323 77.0682 112.6 77.2109 112.99 77.2678C113.18 77.2955 113.378 77.3028 113.584 77.2897C113.803 77.2676 114.041 77.2161 114.299 77.1351L114.553 78.2553ZM121.969 79.1576C121.463 79.321 120.966 79.4104 120.48 79.4258C119.992 79.4518 119.548 79.4356 119.147 79.3772C118.018 79.2126 117.216 78.7672 116.743 78.0407C116.28 77.3159 116.123 76.393 116.273 75.2723L116.4 74.3207C116.545 73.2317 116.936 72.3995 117.573 71.8239C118.219 71.2498 119.05 71.0366 120.063 71.1842C120.601 71.2626 121.077 71.4451 121.491 71.7317C121.917 72.0093 122.232 72.3893 122.436 72.8718C122.653 73.3453 122.715 73.9256 122.624 74.6129C122.564 75.0569 122.433 75.5552 122.23 76.1077L117.56 75.4274L117.555 75.4591C117.448 76.2627 117.531 76.8944 117.803 77.3544C118.086 77.816 118.596 78.1006 119.335 78.2082C119.673 78.2574 120.048 78.2689 120.46 78.2427C120.883 78.2181 121.302 78.1444 121.717 78.0215L121.969 79.1576ZM119.911 72.3261C119.298 72.2369 118.807 72.3702 118.437 72.7258C118.078 73.0724 117.835 73.6029 117.708 74.3172L121.254 74.8338C121.311 74.6481 121.351 74.4707 121.374 74.3015C121.453 73.7094 121.342 73.2513 121.041 72.9273C120.752 72.5941 120.375 72.3937 119.911 72.3261ZM128.876 73.7128C128.58 73.6697 128.222 73.693 127.801 73.7826C127.391 73.8737 126.876 74.1059 126.255 74.479L125.5 80.1408L124.201 79.9517L125.249 72.1013L126.484 72.2812L126.338 73.3755C126.961 72.9812 127.512 72.7272 127.989 72.6136C128.478 72.5015 128.933 72.4762 129.355 72.5377C130.084 72.6438 130.607 72.9571 130.925 73.4777C131.255 73.9892 131.363 74.6679 131.25 75.5137L130.535 80.8742L129.236 80.6851L129.926 75.5149C130.07 74.4365 129.72 73.8358 128.876 73.7128ZM138.012 81.9633L138.158 80.8691C137.611 81.2635 137.124 81.5267 136.697 81.6586C136.283 81.7815 135.864 81.8121 135.442 81.7506C134.608 81.6292 134.007 81.2182 133.637 80.5177C133.279 79.8188 133.176 78.8984 133.328 77.7565L133.451 76.8367C133.599 75.7265 133.991 74.8836 134.628 74.3081C135.275 73.734 136.126 73.5239 137.181 73.6776C137.488 73.7222 137.789 73.7985 138.087 73.9065C138.385 74.0146 138.679 74.149 138.969 74.3099L139.515 70.2182L140.814 70.4073L139.247 82.1432L138.012 81.9633ZM134.674 77.9525C134.564 78.7772 134.609 79.4036 134.81 79.8317C135.024 80.2508 135.389 80.498 135.906 80.5733C136.212 80.6179 136.539 80.59 136.886 80.4896C137.234 80.3787 137.689 80.1162 138.25 79.7021L138.808 75.5152C138.521 75.3332 138.238 75.195 137.96 75.1006C137.683 74.9957 137.408 74.9232 137.133 74.8832C136.416 74.7787 135.87 74.9201 135.495 75.3075C135.131 75.6964 134.898 76.2714 134.797 77.0327L134.674 77.9525ZM155.32 87.1842C154.671 87.37 153.971 87.4891 153.222 87.5416C152.483 87.5956 151.744 87.5689 151.005 87.4612C149.601 87.2568 148.441 86.7968 147.525 86.0813C146.62 85.3674 145.976 84.4653 145.595 83.375C145.213 82.2846 145.112 81.0681 145.291 79.7253C145.438 78.6257 145.742 77.6353 146.204 76.7541C146.667 75.8623 147.257 75.1129 147.973 74.5058C148.689 73.8987 149.505 73.4678 150.421 73.2133C151.339 72.9482 152.32 72.8917 153.365 73.0439C154.336 73.1854 155.196 73.4776 155.944 73.9207C156.692 74.3637 157.317 74.9183 157.82 75.5844C158.323 76.2505 158.675 76.997 158.877 77.824C159.091 78.6419 159.137 79.5055 159.015 80.4148C158.898 81.2923 158.641 82.0524 158.243 82.6951C157.856 83.3393 157.372 83.8185 156.792 84.1329C156.223 84.4487 155.605 84.5582 154.94 84.4614C154.434 84.3876 154.026 84.2203 153.716 83.9597C153.417 83.7006 153.251 83.3368 153.216 82.8683C152.695 83.3097 152.203 83.6046 151.742 83.753C151.292 83.903 150.856 83.9472 150.433 83.8857C149.937 83.8135 149.545 83.6108 149.256 83.2776C148.978 82.9355 148.816 82.5022 148.767 81.9778C148.72 81.4428 148.787 80.8597 148.968 80.2286L149.212 79.3748C149.511 78.3406 149.979 77.5787 150.614 77.0893C151.262 76.5908 152.061 76.4107 153.011 76.5491C153.528 76.6244 154.017 76.7873 154.479 77.0378C154.952 77.2792 155.401 77.5871 155.824 77.9613L154.612 81.8429C154.433 82.3773 154.409 82.7618 154.539 82.9963C154.681 83.2218 154.9 83.356 155.195 83.3991C155.565 83.4529 155.927 83.3601 156.282 83.1208C156.647 82.883 156.964 82.5196 157.234 82.0308C157.505 81.5313 157.687 80.9327 157.78 80.2349C157.914 79.2305 157.813 78.2995 157.475 77.442C157.139 76.5738 156.606 75.8495 155.877 75.269C155.159 74.6795 154.273 74.3078 153.217 74.1541C152.352 74.028 151.538 74.0766 150.777 74.2998C150.015 74.523 149.336 74.8983 148.738 75.4256C148.152 75.9439 147.663 76.584 147.271 77.3461C146.889 78.1096 146.636 78.9619 146.51 79.9029C146.359 81.0342 146.432 82.058 146.73 82.9744C147.039 83.8817 147.564 84.6264 148.304 85.2085C149.053 85.8026 150.003 86.1835 151.153 86.3511C151.808 86.4464 152.473 86.4624 153.148 86.3992C153.823 86.3465 154.452 86.2279 155.036 86.0435L155.32 87.1842ZM150.298 80.4223C150.098 81.1154 150.051 81.669 150.157 82.0832C150.275 82.4885 150.535 82.7203 150.936 82.7787C151.242 82.8233 151.602 82.7464 152.016 82.548C152.43 82.3496 152.895 81.97 153.411 81.4092L154.348 78.3769C153.869 78.0161 153.397 77.8019 152.933 77.7342C152.31 77.6435 151.805 77.7639 151.416 78.0953C151.027 78.4267 150.736 78.9178 150.541 79.5685L150.298 80.4223ZM79.7015 84.7065L81.1264 84.9141L80.2035 91.8288C80.0878 92.6957 80.1769 93.3985 80.4709 93.9372C80.7754 94.4773 81.3129 94.8035 82.0835 94.9158C82.8646 95.0295 83.467 94.8694 83.8908 94.4353C84.3146 94.0012 84.5844 93.3507 84.7001 92.4837L85.623 85.569L87.048 85.7766L86.125 92.6913C85.9571 93.9494 85.5191 94.8934 84.8109 95.5232C84.1041 96.1424 83.1385 96.3629 81.9141 96.1845C80.6792 96.0046 79.8028 95.5159 79.2852 94.7184C78.7795 93.9118 78.6106 92.8794 78.7786 91.6212L79.7015 84.7065ZM90.8468 90.9862L91.0247 95.4582L94.7022 86.8915L95.9847 87.0783L97.285 96.3216L98.6524 92.1231L100.196 87.6917L101.558 87.8901L97.7435 98.3285L96.3502 98.1255L95.0572 88.948L91.4103 97.406L90.0012 97.2008L89.0815 86.0728L90.5223 86.2827L90.8468 90.9862ZM107.315 95.4383C107.183 96.4321 107.276 97.2271 107.594 97.8232C107.925 98.4103 108.502 98.7638 109.325 98.8837C109.684 98.9359 110.043 98.9452 110.403 98.9113C110.762 98.8775 111.199 98.7902 111.713 98.6494L112.015 99.8899C111.467 100.047 110.954 100.145 110.475 100.183C109.997 100.221 109.541 100.209 109.108 100.146C107.863 99.9641 106.97 99.4353 106.431 98.5591C105.891 97.6829 105.711 96.5735 105.89 95.2307L106.208 92.8518C106.387 91.509 106.851 90.4934 107.599 89.8047C108.347 89.1161 109.344 88.8625 110.59 89.044C111.023 89.107 111.464 89.2252 111.915 89.3986C112.375 89.5735 112.833 89.8126 113.288 90.1159L112.686 91.2408C111.881 90.7357 111.142 90.4339 110.466 90.3355C109.643 90.2156 108.995 90.3907 108.524 90.8609C108.062 91.3327 107.766 92.0655 107.633 93.0594L107.315 95.4383ZM116.545 99.9677C117.21 100.065 117.741 99.9964 118.138 99.7632C118.537 99.5194 118.773 99.1173 118.848 98.557C118.91 98.0918 118.836 97.6821 118.625 97.328C118.424 96.9755 118.056 96.6739 117.519 96.4232L116.287 95.8558C115.517 95.4958 114.975 95.0449 114.66 94.5032C114.346 93.951 114.237 93.3153 114.333 92.5964C114.407 92.0466 114.579 91.565 114.849 91.1517C115.13 90.74 115.525 90.4365 116.036 90.2414C116.557 90.0478 117.208 90.0078 117.989 90.1216C118.464 90.1908 118.947 90.3204 119.438 90.5105C119.93 90.6901 120.419 90.9391 120.904 91.2576L120.302 92.3825C119.825 92.0867 119.387 91.8612 118.988 91.7061C118.601 91.5419 118.222 91.4329 117.853 91.3791C117.251 91.2915 116.765 91.3499 116.393 91.5545C116.033 91.75 115.816 92.1332 115.739 92.7042C115.684 93.1165 115.749 93.4816 115.932 93.7993C116.117 94.1065 116.483 94.3915 117.029 94.6542L118.26 95.2217C119.801 95.9311 120.466 97.0735 120.256 98.6489C120.135 99.5582 119.762 100.258 119.136 100.749C118.513 101.23 117.594 101.382 116.38 101.205C115.884 101.132 115.364 100.997 114.82 100.8C114.288 100.593 113.744 100.314 113.189 99.9638L113.773 98.8525C114.298 99.1877 114.776 99.4405 115.205 99.6108C115.645 99.7826 116.091 99.9016 116.545 99.9677ZM127.153 98.3277C127.02 99.3216 127.113 100.117 127.432 100.713C127.762 101.3 128.339 101.653 129.163 101.773C129.521 101.825 129.881 101.835 130.24 101.801C130.6 101.767 131.037 101.68 131.55 101.539L131.853 102.779C131.305 102.937 130.791 103.034 130.313 103.072C129.834 103.11 129.378 103.098 128.946 103.035C127.7 102.854 126.808 102.325 126.268 101.449C125.729 100.572 125.549 99.4629 125.728 98.1202L126.045 95.7413C126.225 94.3985 126.688 93.3828 127.437 92.6942C128.185 92.0056 129.182 91.752 130.427 91.9334C130.86 91.9965 131.302 92.1147 131.752 92.288C132.213 92.463 132.671 92.7021 133.125 93.0054L132.523 94.1303C131.719 93.6251 130.979 93.3233 130.304 93.2249C129.48 93.105 128.833 93.2802 128.361 93.7504C127.9 94.2222 127.603 94.955 127.47 95.9488L127.153 98.3277ZM133.991 101.668L135.304 91.8353L136.602 92.0244L135.298 101.794C135.26 102.079 135.273 102.302 135.338 102.462C135.415 102.614 135.59 102.709 135.865 102.749L136.118 102.786L135.959 103.976L135.595 103.923C134.898 103.821 134.438 103.565 134.212 103.155C133.987 102.745 133.914 102.25 133.991 101.668ZM142.757 104.885L142.905 103.775C142.293 104.171 141.757 104.432 141.299 104.559C140.842 104.676 140.398 104.703 139.965 104.64C139.268 104.539 138.766 104.234 138.457 103.725C138.149 103.206 138.052 102.529 138.163 101.694L138.881 96.3174L140.179 96.5065L139.487 101.692C139.413 102.242 139.454 102.663 139.609 102.955C139.775 103.238 140.054 103.408 140.445 103.465C140.74 103.508 141.083 103.482 141.472 103.388C141.861 103.294 142.36 103.065 142.968 102.701L143.726 97.0231L145.024 97.2122L143.976 105.063L142.757 104.885ZM153.567 102.935C153.42 104.035 153.028 104.872 152.392 105.448C151.756 106.023 150.904 106.233 149.838 106.078C148.783 105.924 147.775 105.492 146.816 104.781L148.291 93.727L149.589 93.9161L148.929 98.8642C149.463 98.4893 149.937 98.2404 150.352 98.1176C150.778 97.9857 151.198 97.9497 151.609 98.0097C152.433 98.1296 153.024 98.5391 153.382 99.238C153.741 99.9369 153.843 100.863 153.689 102.015L153.567 102.935ZM151.13 99.1847C150.834 99.1417 150.507 99.1749 150.148 99.2843C149.799 99.3952 149.339 99.6622 148.766 100.085L148.211 104.241C148.799 104.596 149.367 104.813 149.916 104.893C150.623 104.996 151.159 104.853 151.522 104.464C151.888 104.065 152.121 103.49 152.221 102.739L152.344 101.819C152.454 100.994 152.408 100.368 152.207 99.9399C152.006 99.5118 151.647 99.2601 151.13 99.1847Z" fill="#0E3C66"/>
</g>
<defs>
<clipPath id="clip0">
<rect width="188.184" height="111.138" fill="white" transform="matrix(-0.989558 -0.144135 -0.1323 0.99121 200.922 27.1239)"/>
</clipPath>
</defs>
</svg>
