<svg width="175" height="175" viewBox="0 0 175 175" fill="none" xmlns="http://www.w3.org/2000/svg">
<g clip-path="url(#clip0)">
<path d="M106.061 155.207H68.9389C57.026 155.207 50.7255 163.403 48 175.001H128C125.274 163.403 117.974 155.207 106.061 155.207Z" fill="#F4CB4D"/>
<path d="M166.677 84.0463C166.677 92.4656 163.364 100.5 157.545 106.215L87.4968 174.999L161.154 53.2053C164.737 62.8294 166.677 73.2594 166.677 84.0463Z" fill="#F4CB4D"/>
<path d="M161.154 53.2055L87.4968 174.999L125.47 10.2961C136.014 16.3971 144.975 24.9076 151.818 35.0289C155.611 40.6394 158.752 46.7404 161.154 53.2055Z" fill="#F4CB4D"/>
<path d="M125.47 10.2964L87.4968 174.999V0C96.0481 0 104.606 1.47098 112.821 4.41295C117.249 5.99582 121.471 7.97128 125.47 10.2964Z" fill="#F4CB4D"/>
<path d="M87.4967 0V174.999L49.5232 10.2964C53.5217 7.9708 57.7515 5.99583 62.1789 4.41247C70.3936 1.47098 78.9449 0 87.4967 0Z" fill="#F4CB4D"/>
<path d="M49.5232 10.2961L87.4967 174.999L13.8396 53.2127V53.2055C16.2479 46.7404 19.3887 40.6394 23.1828 35.0289C30.0249 24.9076 38.9856 16.4043 49.5232 10.2961Z" fill="#F4CB4D"/>
<path d="M13.8396 53.2134L87.4968 175L17.4551 106.216C14.5452 103.358 12.2622 99.9192 10.7052 96.1434C9.1478 92.368 8.3232 88.2565 8.3232 84.0466C8.3232 73.2602 10.2632 62.8375 13.8396 53.2134Z" fill="#F4CB4D"/>
<ellipse cx="88" cy="71.5" rx="76" ry="71.5" fill="#F4CB4D"/>
<path d="M115.64 65.5924C112.734 60.488 108.792 56.4469 103.813 53.4681C98.8331 50.4891 93.3967 49 87.4997 49C81.6035 49 76.1652 50.4896 71.1865 53.4681C66.207 56.4467 62.265 60.488 59.3588 65.5924C56.453 70.6966 55 76.2704 55 82.3137C55 89.5731 57.0661 96.1009 61.1995 101.899C65.3324 107.697 70.6714 111.71 77.2163 113.936C77.9781 114.081 78.5421 113.979 78.9087 113.633C79.2756 113.286 79.4588 112.852 79.4588 112.332C79.4588 112.245 79.4515 111.465 79.4374 109.99C79.4229 108.515 79.4161 107.228 79.4161 106.13L78.4428 106.302C77.8222 106.419 77.0393 106.468 76.0941 106.454C75.1494 106.441 74.1686 106.339 73.1532 106.15C72.1373 105.963 71.1924 105.53 70.3178 104.85C69.4436 104.17 68.823 103.281 68.4562 102.183L68.033 101.184C67.751 100.52 67.3069 99.7817 66.7003 98.9725C66.0936 98.1625 65.4801 97.6134 64.8595 97.3243L64.5633 97.1069C64.3658 96.9624 64.1826 96.7881 64.0132 96.5859C63.844 96.3837 63.7172 96.1813 63.6326 95.9786C63.5478 95.7758 63.6181 95.6094 63.8441 95.4789C64.0701 95.3484 64.4786 95.2851 65.0713 95.2851L65.9174 95.4146C66.4816 95.5306 67.1796 95.8768 68.0121 96.4556C68.8442 97.0338 69.5282 97.7856 70.0643 98.7105C70.7135 99.8965 71.4957 100.8 72.413 101.422C73.3296 102.044 74.2537 102.354 75.1845 102.354C76.1153 102.354 76.9192 102.282 77.5966 102.138C78.2732 101.994 78.908 101.776 79.5007 101.487C79.7546 99.5488 80.4459 98.0597 81.574 97.0188C79.9661 96.8456 78.5206 96.5847 77.2366 96.2378C75.9533 95.8905 74.6272 95.3268 73.2592 94.5453C71.8904 93.7648 70.7549 92.7956 69.8524 91.6394C68.9497 90.4826 68.209 88.9639 67.6311 87.0846C67.0529 85.2046 66.7637 83.0359 66.7637 80.5779C66.7637 77.0781 67.8783 74.0999 70.107 71.6416C69.063 69.0104 69.1615 66.0608 70.403 62.793C71.2212 62.5324 72.4345 62.728 74.0423 63.3784C75.6505 64.0291 76.8279 64.5866 77.5758 65.0487C78.3237 65.5108 78.923 65.9023 79.3744 66.2199C81.9986 65.4682 84.7067 65.0924 87.4994 65.0924C90.2921 65.0924 93.0008 65.4682 95.6251 66.2199L97.2331 65.1793C98.3327 64.4849 99.6313 63.8486 101.126 63.2702C102.621 62.6921 103.764 62.5329 104.554 62.7934C105.823 66.0614 105.937 69.0109 104.892 71.6421C107.121 74.1003 108.236 77.0793 108.236 80.5783C108.236 83.0363 107.946 85.2119 107.368 87.1063C106.79 89.0011 106.043 90.5183 105.127 91.6611C104.209 92.8038 103.066 93.7654 101.698 94.5457C100.33 95.3267 99.0033 95.8904 97.72 96.2377C96.4362 96.585 94.9906 96.846 93.3827 97.0195C94.8492 98.3204 95.5826 100.374 95.5826 103.179V112.331C95.5826 112.851 95.759 113.285 96.112 113.632C96.4646 113.978 97.0215 114.08 97.7833 113.935C104.329 111.708 109.668 107.696 113.801 101.898C117.933 96.0997 120 89.5719 120 82.3125C119.999 76.27 118.545 70.6966 115.64 65.5924Z" fill="white"/>
<rect x="67" y="140" width="41" height="30" fill="#F4CB4D"/>
</g>
<defs>
<clipPath id="clip0">
<rect width="175" height="175" fill="white"/>
</clipPath>
</defs>
</svg>
