<svg width="45" height="44" viewBox="0 0 45 44" fill="none" xmlns="http://www.w3.org/2000/svg">
<path d="M41.9815 11.206C39.9695 7.75863 37.2403 5.02938 33.7933 3.01759C30.3458 1.00569 26.5821 0 22.4996 0C18.4177 0 14.6528 1.006 11.206 3.01759C7.75863 5.02928 5.02959 7.75863 3.01759 11.206C1.0059 14.6532 0 18.4176 0 22.499C0 27.4018 1.4304 31.8105 4.29191 35.7262C7.15312 39.6423 10.8494 42.352 15.3804 43.8558C15.9078 43.9537 16.2982 43.8848 16.5521 43.651C16.8061 43.4168 16.9329 43.1235 16.9329 42.7724C16.9329 42.7138 16.9279 42.1867 16.9181 41.1905C16.9081 40.1942 16.9033 39.3251 16.9033 38.5835L16.2295 38.7001C15.7999 38.7788 15.2579 38.8121 14.6035 38.8027C13.9495 38.7936 13.2705 38.725 12.5675 38.5976C11.8642 38.4713 11.2101 38.1783 10.6045 37.7193C9.99935 37.2603 9.56972 36.6596 9.31575 35.9179L9.0228 35.2437C8.82753 34.7949 8.52011 34.2963 8.10012 33.7498C7.68013 33.2028 7.25543 32.832 6.82579 32.6367L6.62067 32.4899C6.484 32.3923 6.35717 32.2746 6.23988 32.138C6.1227 32.0014 6.03497 31.8648 5.97638 31.7279C5.91768 31.5909 5.96632 31.4785 6.1228 31.3904C6.27929 31.3022 6.56208 31.2594 6.97242 31.2594L7.55813 31.347C7.94877 31.4253 8.43196 31.6591 9.00833 32.05C9.58439 32.4405 10.0579 32.9482 10.4291 33.5729C10.8785 34.3739 11.42 34.9842 12.0551 35.4042C12.6896 35.8242 13.3294 36.0338 13.9738 36.0338C14.6182 36.0338 15.1747 35.985 15.6437 35.8878C16.1121 35.7901 16.5516 35.6433 16.9619 35.4481C17.1377 34.139 17.6163 33.1333 18.3972 32.4303C17.2841 32.3134 16.2834 32.1372 15.3944 31.9029C14.506 31.6684 13.588 31.2877 12.6409 30.7598C11.6933 30.2327 10.9071 29.5782 10.2824 28.7973C9.65745 28.016 9.1446 26.9903 8.74452 25.7211C8.34423 24.4514 8.14404 22.9867 8.14404 21.3267C8.14404 18.963 8.91567 16.9517 10.4586 15.2914C9.73584 13.5144 9.80408 11.5223 10.6636 9.31534C11.23 9.13937 12.0699 9.27143 13.1831 9.7107C14.2964 10.1502 15.1115 10.5267 15.6293 10.8388C16.1471 11.1509 16.5619 11.4153 16.8745 11.6297C18.6912 11.1221 20.566 10.8683 22.4994 10.8683C24.4328 10.8683 26.3081 11.1221 28.1249 11.6297L29.2381 10.927C29.9994 10.458 30.8984 10.0283 31.9329 9.63765C32.968 9.24721 33.7596 9.13967 34.3067 9.31565C35.1852 11.5227 35.2635 13.5147 34.5405 15.2917C36.0834 16.952 36.8553 18.9639 36.8553 21.327C36.8553 22.987 36.6544 24.4563 36.2548 25.7358C35.8546 27.0155 35.3373 28.0401 34.7028 28.812C34.0675 29.5837 33.2764 30.2331 32.3293 30.7601C31.382 31.2876 30.4636 31.6682 29.5752 31.9028C28.6864 32.1374 27.6856 32.3137 26.5725 32.4309C27.5877 33.3094 28.0954 34.6962 28.0954 36.5906V42.7716C28.0954 43.1227 28.2175 43.4159 28.462 43.6501C28.7061 43.884 29.0916 43.9529 29.619 43.8549C34.1506 42.3513 37.8469 39.6414 40.708 35.7254C43.5688 31.8096 44.9997 27.401 44.9997 22.4982C44.9987 18.4173 43.9923 14.6532 41.9815 11.206Z" fill="white"/>
</svg>
