<svg width="211" height="188" viewBox="0 0 211 188" fill="none" xmlns="http://www.w3.org/2000/svg">
<g clip-path="url(#clip0)">
<path d="M54.3847 95.5736L24.0888 72.0826C21.1779 69.8257 16.7106 70.9373 16.0471 74.0838L10.6342 99.7535C9.97068 102.9 13.6088 105.721 17.1831 104.831L54.3847 95.5736Z" fill="#ED76B7"/>
<path d="M49.5205 94.5497C55.0781 121.161 79.2868 144.409 111.986 151.304C144.685 158.199 176.22 146.705 192.049 124.604C188.36 106.942 176.459 90.7616 159.311 79.8637C143.229 69.6353 123.538 64.7793 104.703 66.057C81.6263 67.6086 61.2591 78.1613 49.5205 94.5497Z" fill="#FFDFF3"/>
<path d="M104.703 66.057C117.211 65.2084 130.101 67.0656 142.089 71.4184L124.867 153.09C86.8633 150.527 55.9414 125.296 49.5205 94.5495C61.2587 78.1613 81.6263 67.6087 104.703 66.057Z" fill="#FFDFF3"/>
<path d="M109.528 43.1753L104.703 66.0573C123.501 64.7822 143.198 69.6152 159.311 79.864L117.917 41.4693C115.105 38.8601 110.229 39.852 109.528 43.1753Z" fill="#ED76B7"/>
</g>
<defs>
<clipPath id="clip0">
<rect width="182.639" height="153.485" fill="white" transform="matrix(-0.978483 -0.20633 -0.20633 0.978483 210.378 37.684)"/>
</clipPath>
</defs>
</svg>
