<svg width="225" height="225" viewBox="0 0 225 225" fill="none" xmlns="http://www.w3.org/2000/svg">
<path d="M112.5 0C50.3679 0 0 50.3684 0 112.5C0 130.251 14.3909 144.643 32.1429 144.643H53.5714C56.5254 144.643 58.9286 147.046 58.9286 150C58.9286 152.954 56.5254 155.357 53.5714 155.357C41.7557 155.357 32.1429 164.97 32.1429 176.786C32.1429 188.601 41.7557 198.214 53.5714 198.214C56.5254 198.214 58.9286 200.617 58.9286 203.571C58.9286 206.525 56.5254 208.929 53.5714 208.929V225C65.3871 225 75 215.387 75 203.571C75 191.756 65.3871 182.143 53.5714 182.143C50.6175 182.143 48.2143 179.74 48.2143 176.786C48.2143 173.832 50.6175 171.429 53.5714 171.429C65.3871 171.429 75 161.816 75 150C75 148.151 74.7643 146.356 74.3218 144.643H109.821C112.775 144.643 115.179 147.046 115.179 150C115.179 152.954 112.775 155.357 109.821 155.357C98.0057 155.357 88.3929 164.97 88.3929 176.786C88.3929 188.601 98.0057 198.214 109.821 198.214C112.775 198.214 115.179 200.617 115.179 203.571C115.179 206.525 112.775 208.929 109.821 208.929V225C121.637 225 131.25 215.387 131.25 203.571C131.25 191.756 121.637 182.143 109.821 182.143C106.867 182.143 104.464 179.74 104.464 176.786C104.464 173.832 106.867 171.429 109.821 171.429C121.637 171.429 131.25 161.816 131.25 150C131.25 148.151 131.014 146.356 130.572 144.643H168.75C171.704 144.643 174.107 147.046 174.107 150C174.107 152.954 171.704 155.357 168.75 155.357C156.934 155.357 147.321 164.97 147.321 176.786C147.321 188.601 156.934 198.214 168.75 198.214C171.704 198.214 174.107 200.617 174.107 203.571C174.107 206.525 171.704 208.929 168.75 208.929V225C180.566 225 190.179 215.387 190.179 203.571C190.179 191.756 180.566 182.143 168.75 182.143C165.796 182.143 163.393 179.74 163.393 176.786C163.393 173.832 165.796 171.429 168.75 171.429C180.566 171.429 190.179 161.816 190.179 150C190.179 148.151 189.943 146.356 189.5 144.643H192.857C210.609 144.643 225 130.251 225 112.5C225 50.3684 174.632 0 112.5 0Z" fill="#FFA8D9"/>
<path d="M112.5 0C164.126 10.2096 203.571 57.8786 203.571 112.5C203.571 130.251 189.181 144.643 171.429 144.643H192.857C210.609 144.643 225 130.251 225 112.5C225 50.3684 174.632 0 112.5 0Z" fill="#FFC8EB"/>
<path d="M112.5 0C60.8743 10.2096 21.4286 57.8786 21.4286 112.5C21.4286 130.251 35.8195 144.643 53.5714 144.643H32.1429C14.3909 144.643 0 130.251 0 112.5C0 50.3684 50.3679 0 112.5 0Z" fill="#ED76B7"/>
</svg>
