<svg width="225" height="225" viewBox="0 0 225 225" fill="none" xmlns="http://www.w3.org/2000/svg">
<path d="M112.5 0C174.632 0 225 50.3684 225 112.5C225 130.251 210.609 144.643 192.857 144.643H171.429C168.475 144.643 166.071 147.046 166.071 150C166.071 152.954 168.475 155.357 171.429 155.357C183.244 155.357 192.857 164.97 192.857 176.786C192.857 188.601 183.244 198.214 171.429 198.214C168.475 198.214 166.071 200.617 166.071 203.571C166.071 206.525 168.475 208.929 171.429 208.929V225C159.613 225 150 215.387 150 203.571C150 191.756 159.613 182.143 171.429 182.143C174.383 182.143 176.786 179.74 176.786 176.786C176.786 173.832 174.383 171.429 171.429 171.429C159.613 171.429 150 161.816 150 150C150 148.151 150.236 146.356 150.678 144.643H115.179C112.225 144.643 109.821 147.046 109.821 150C109.821 152.954 112.225 155.357 115.179 155.357C126.994 155.357 136.607 164.97 136.607 176.786C136.607 188.601 126.994 198.214 115.179 198.214C112.225 198.214 109.821 200.617 109.821 203.571C109.821 206.525 112.225 208.929 115.179 208.929V225C103.363 225 93.75 215.387 93.75 203.571C93.75 191.756 103.363 182.143 115.179 182.143C118.133 182.143 120.536 179.74 120.536 176.786C120.536 173.832 118.133 171.429 115.179 171.429C103.363 171.429 93.75 161.816 93.75 150C93.75 148.151 93.9857 146.356 94.4282 144.643H56.25C53.2961 144.643 50.8929 147.046 50.8929 150C50.8929 152.954 53.2961 155.357 56.25 155.357C68.0657 155.357 77.6786 164.97 77.6786 176.786C77.6786 188.601 68.0657 198.214 56.25 198.214C53.2961 198.214 50.8929 200.617 50.8929 203.571C50.8929 206.525 53.2961 208.929 56.25 208.929V225C44.4343 225 34.8214 215.387 34.8214 203.571C34.8214 191.756 44.4343 182.143 56.25 182.143C59.2039 182.143 61.6071 179.74 61.6071 176.786C61.6071 173.832 59.2039 171.429 56.25 171.429C44.4343 171.429 34.8214 161.816 34.8214 150C34.8214 148.151 35.0571 146.356 35.4996 144.643H32.1429C14.3909 144.643 7.15256e-06 130.251 7.15256e-06 112.5C7.15256e-06 50.3684 50.3679 0 112.5 0Z" fill="#D795FF"/>
<path d="M112.5 0C60.8743 10.2096 21.4286 57.8786 21.4286 112.5C21.4286 130.251 35.8195 144.643 53.5714 144.643H32.1429C14.3909 144.643 3.57628e-06 130.251 3.57628e-06 112.5C3.57628e-06 50.3684 50.3679 0 112.5 0Z" fill="#BE63F6"/>
<path d="M112.5 0C164.126 10.2096 203.571 57.8786 203.571 112.5C203.571 130.251 189.181 144.643 171.429 144.643H192.857C210.609 144.643 225 130.251 225 112.5C225 50.3684 174.632 0 112.5 0Z" fill="#E6BEFF"/>
</svg>
