<svg width="41" height="41" viewBox="0 0 41 41" fill="none" xmlns="http://www.w3.org/2000/svg">
<path d="M9.94419 24.5588L2.39771 20.1846C1.67264 19.7643 0.764641 20.2865 0.763216 21.1246L0.751595 27.9618C0.75017 28.7999 1.65639 29.3251 2.38288 28.9074L9.94419 24.5588Z" fill="white"/>
<path d="M7.55996 24.6476C9.9447 29.8089 16.1769 33.4975 23.4958 33.5099C30.8147 33.5224 37.0595 29.8548 39.4617 24.7018C37.8788 21.2762 34.602 18.4993 30.4373 17.016C26.5311 15.6233 22.0921 15.473 18.1118 16.5304C13.2344 17.8232 9.34145 20.8265 7.55996 24.6476Z" fill="white"/>
<path d="M18.8925 11.6225L18.8821 17.7172C22.8551 16.388 27.2943 16.5688 31.2075 18.3226L20.6148 10.7392C19.8951 10.2238 18.894 10.7373 18.8925 11.6225Z" fill="white"/>
</svg>
