<svg width="226" height="193" viewBox="0 0 226 193" fill="none" xmlns="http://www.w3.org/2000/svg">
<g clip-path="url(#clip0)">
<path d="M63.1916 119.339L23.2358 110.856C19.3968 110.041 15.4555 112.961 16.1411 116.112L21.7338 141.82C22.4193 144.971 27.2174 145.99 30.3708 143.654L63.1916 119.339Z" fill="#FFB648"/>
<path d="M57.9477 120.481C74.7843 142.366 108.62 153.225 143.877 145.555C179.133 137.885 205.4 113.95 211.624 87.0493C200.448 72.5246 181.789 62.8553 160.196 60.24C139.942 57.7802 118.41 61.7577 100.34 70.9602C78.1943 82.223 62.5633 100.534 57.9477 120.481Z" fill="#FFF2CA"/>
<path d="M100.34 70.9604C112.341 64.8488 125.871 61.0406 139.575 59.8922L157.368 141.685C118.716 155.567 77.4002 145.766 57.9476 120.481C62.5629 100.534 78.1943 82.2231 100.34 70.9604Z" fill="#FFF2CA"/>
<path d="M95.3547 48.0447L100.34 70.9607C118.375 61.7762 139.902 57.7754 160.196 60.2404L102.919 42.9093C99.0275 41.7312 94.6306 44.7164 95.3547 48.0447Z" fill="#FFB648"/>
</g>
<defs>
<clipPath id="clip0">
<rect width="197.193" height="153.923" fill="white" transform="matrix(-0.977144 0.212577 0.212577 0.977144 192.686 0)"/>
</clipPath>
</defs>
</svg>
